<svg width="41" height="38" viewBox="0 0 41 38" fill="none" xmlns="http://www.w3.org/2000/svg">
<path id="Vector" d="M33.3335 11.7266V8.0599H29.6668V4.39323H33.3335V0.726562H37.0002V4.39323H40.6668V8.0599H37.0002V11.7266H33.3335ZM18.6668 30.9766C20.9585 30.9766 22.9067 30.1748 24.5115 28.5712C26.1163 26.9677 26.9181 25.0195 26.9168 22.7266C26.9156 20.4337 26.1138 18.4861 24.5115 16.8837C22.9092 15.2814 20.9609 14.479 18.6668 14.4766C16.3727 14.4741 14.4251 15.2765 12.824 16.8837C11.2229 18.491 10.4205 20.4386 10.4168 22.7266C10.4132 25.0146 11.2156 26.9628 12.824 28.5712C14.4324 30.1797 16.3801 30.9815 18.6668 30.9766ZM18.6668 27.3099C17.3835 27.3099 16.2988 26.8668 15.4127 25.9807C14.5266 25.0946 14.0835 24.0099 14.0835 22.7266C14.0835 21.4432 14.5266 20.3585 15.4127 19.4724C16.2988 18.5863 17.3835 18.1432 18.6668 18.1432C19.9502 18.1432 21.0349 18.5863 21.921 19.4724C22.8071 20.3585 23.2502 21.4432 23.2502 22.7266C23.2502 24.0099 22.8071 25.0946 21.921 25.9807C21.0349 26.8668 19.9502 27.3099 18.6668 27.3099ZM4.00016 37.3932C2.99183 37.3932 2.12894 37.0345 1.4115 36.3171C0.694052 35.5996 0.334718 34.7361 0.333496 33.7266V11.7266C0.333496 10.7182 0.69283 9.85534 1.4115 9.1379C2.13016 8.42045 2.99305 8.06112 4.00016 8.0599H9.77516L13.1668 4.39323H26.0002V11.7266H29.6668V15.3932H37.0002V33.7266C37.0002 34.7349 36.6414 35.5984 35.924 36.3171C35.2066 37.0357 34.3431 37.3945 33.3335 37.3932H4.00016Z" fill="#999999"/>
</svg>
