<svg width="49" height="49" viewBox="0 0 49 49" fill="none" xmlns="http://www.w3.org/2000/svg">
<g id="Group 67">
<g id="Group 65">
<circle id="Ellipse 24" cx="24.7698" cy="24.4421" r="24.1208" fill="#FAB31B"/>
</g>
<path id="Vector" d="M36.5286 18.6401L33.6786 16.4441C33.4849 16.3198 33.2743 16.224 33.0534 16.1597C32.8334 16.0879 32.6043 16.0483 32.373 16.0421H24.1698L25.131 22.0421H32.373C32.5698 22.0421 32.8158 21.9977 33.0522 21.9245C33.2886 21.8513 33.5166 21.7505 33.6774 21.6413L36.5274 19.4429C36.6894 19.3337 36.7698 19.1885 36.7698 19.0421C36.7698 18.8957 36.6894 18.7505 36.5286 18.6401ZM22.9698 13.6421H21.7698C21.6106 13.6421 21.458 13.7053 21.3455 13.8178C21.233 13.9303 21.1698 14.083 21.1698 14.2421V18.4421H17.1666C16.9674 18.4421 16.7226 18.4865 16.4862 18.5609C16.2486 18.6329 16.0218 18.7325 15.861 18.8441L13.011 21.0401C12.849 21.1493 12.7698 21.2957 12.7698 21.4421C12.7698 21.5873 12.849 21.7325 13.011 21.8441L15.861 24.0425C16.0218 24.1517 16.2486 24.2525 16.4862 24.3245C16.7226 24.3977 16.9674 24.4421 17.1666 24.4421H21.1698V34.6421C21.1698 34.8012 21.233 34.9538 21.3455 35.0664C21.458 35.1789 21.6106 35.2421 21.7698 35.2421H22.9698C23.1289 35.2421 23.2815 35.1789 23.394 35.0664C23.5066 34.9538 23.5698 34.8012 23.5698 34.6421V14.2421C23.5698 14.083 23.5066 13.9303 23.394 13.8178C23.2815 13.7053 23.1289 13.6421 22.9698 13.6421Z" fill="#173956"/>
</g>
</svg>
