<svg width="18" height="17" viewBox="0 0 18 17" fill="none" xmlns="http://www.w3.org/2000/svg">
<path d="M16.9717 16.5331C17.3747 16.0751 17.3519 15.4623 16.8943 15.0596L5.30801 4.864L3.37211 3.28566L8.57231 3.19422L12.3081 2.92241C12.5728 2.90551 12.829 2.75666 13.007 2.55434C13.3941 2.11441 13.3468 1.49463 12.9151 1.11477C12.7041 0.929137 12.4494 0.846203 12.1264 0.858323L1.13608 1.55113C0.813095 1.56395 0.546848 1.68865 0.353618 1.90824C0.167654 2.11956 0.077827 2.39951 0.106179 2.7215L0.816294 13.7111C0.845726 14.0333 0.960333 14.2747 1.17166 14.4607C1.60258 14.8399 2.2234 14.8088 2.6026 14.3778C2.78856 14.1665 2.90363 13.8935 2.88673 13.6288L2.67333 9.89779L2.10202 4.71157L3.92236 6.43864L15.5086 16.6343C15.9662 17.0369 16.5691 16.9906 16.9717 16.5331Z" fill="#999999"/>
</svg>
