<svg width="25" height="25" viewBox="0 0 25 25" fill="none" xmlns="http://www.w3.org/2000/svg">
<path d="M7.22052 16.5771C7.07835 16.4446 6.8903 16.3725 6.696 16.3759C6.5017 16.3794 6.31631 16.4581 6.1789 16.5955C6.04149 16.7329 5.96277 16.9183 5.95935 17.1126C5.95592 17.3069 6.02804 17.4949 6.16052 17.6371L8.16052 19.6371C8.30115 19.7776 8.49177 19.8564 8.69052 19.8564C8.88927 19.8564 9.07989 19.7776 9.22052 19.6371L11.2205 17.6371C11.2942 17.5684 11.3533 17.4856 11.3943 17.3936C11.4353 17.3016 11.4573 17.2023 11.4591 17.1016C11.4609 17.0009 11.4424 16.9009 11.4046 16.8075C11.3669 16.7141 11.3108 16.6293 11.2396 16.5581C11.1683 16.4868 11.0835 16.4307 10.9901 16.393C10.8967 16.3553 10.7967 16.3367 10.696 16.3385C10.5953 16.3403 10.496 16.3623 10.404 16.4033C10.312 16.4443 10.2292 16.5034 10.1605 16.5771L9.44052 17.2971V7.10711C9.44052 6.90819 9.3615 6.71743 9.22085 6.57677C9.0802 6.43612 8.88943 6.35711 8.69052 6.35711C8.49161 6.35711 8.30084 6.43612 8.16019 6.57677C8.01954 6.71743 7.94052 6.90819 7.94052 7.10711L7.94052 17.2971L7.22052 16.5771ZM14.1605 7.63711C14.3011 7.77756 14.4918 7.85645 14.6905 7.85645C14.8893 7.85645 15.0799 7.77756 15.2205 7.63711L15.9405 6.9171V17.1071C15.9405 17.306 16.0195 17.4968 16.1602 17.6374C16.3008 17.7781 16.4916 17.8571 16.6905 17.8571C16.8894 17.8571 17.0802 17.7781 17.2209 17.6374C17.3615 17.4968 17.4405 17.306 17.4405 17.1071V6.9171L18.1605 7.63711C18.2292 7.71079 18.312 7.76989 18.404 7.81089C18.496 7.85188 18.5953 7.87392 18.696 7.8757C18.7967 7.87747 18.8967 7.85895 18.9901 7.82123C19.0835 7.78351 19.1683 7.72736 19.2396 7.65614C19.3108 7.58492 19.3669 7.50009 19.4046 7.4067C19.4424 7.31331 19.4609 7.21329 19.4591 7.11258C19.4573 7.01188 19.4353 6.91257 19.3943 6.82057C19.3533 6.72857 19.2942 6.64577 19.2205 6.5771L17.2205 4.5771C17.0799 4.43665 16.8893 4.35777 16.6905 4.35777C16.4918 4.35777 16.3011 4.43665 16.1605 4.5771L14.1605 6.5771C14.0201 6.71773 13.9412 6.90835 13.9412 7.10711C13.9412 7.30586 14.0201 7.49648 14.1605 7.63711Z" fill="#1E1E1E"/>
</svg>
