<svg width="25" height="25" viewBox="0 0 25 25" fill="none" xmlns="http://www.w3.org/2000/svg">
<path fill-rule="evenodd" clip-rule="evenodd" d="M6.10693 3.94287C5.96777 3.94288 5.83134 3.9816 5.71293 4.05472C5.59452 4.12783 5.49878 4.23245 5.43643 4.35687L3.18643 8.85687C3.13416 8.96116 3.10694 9.07621 3.10693 9.19287V12.1929C3.10693 12.3918 3.18595 12.5825 3.3266 12.7232C3.46726 12.8639 3.65802 12.9429 3.85693 12.9429H4.60693V21.1929C4.60693 21.3918 4.68595 21.5826 4.8266 21.7232C4.96726 21.8639 5.15802 21.9429 5.35693 21.9429H18.8569C19.0558 21.9429 19.2466 21.8639 19.3873 21.7232C19.5279 21.5826 19.6069 21.3918 19.6069 21.1929V12.9429H20.3569C20.5558 12.9429 20.7466 12.8639 20.8873 12.7232C21.0279 12.5825 21.1069 12.3918 21.1069 12.1929V9.19287C21.1069 9.07621 21.0797 8.96116 21.0274 8.85687L18.7774 4.35687C18.7151 4.23245 18.6194 4.12783 18.5009 4.05472C18.3825 3.9816 18.2461 3.94288 18.1069 3.94287H6.10693ZM19.6069 9.36987V11.4429H16.6069V9.94287H15.1069V11.4429H12.8569V9.94287H11.3569V11.4429H9.10693V9.94287H7.60693V11.4429H4.60693V9.36987L6.57043 5.44287H17.6434L19.6069 9.36987ZM9.85693 15.9429H11.3569V14.4429H9.85693V15.9429ZM12.8569 15.9429H14.3569V14.4429H12.8569V15.9429ZM11.3569 18.1929H9.85693V16.6929H11.3569V18.1929ZM12.8569 18.1929H14.3569V16.6929H12.8569V18.1929Z" fill="#5C5454"/>
</svg>
