<svg width="25" height="25" viewBox="0 0 25 25" fill="none" xmlns="http://www.w3.org/2000/svg">
<path d="M10.1326 4.55997C10.1514 4.67472 10.0944 4.76997 9.90314 4.86597C9.51539 4.71122 9.09602 4.6523 8.68064 4.69422C8.20289 4.73247 7.80164 4.88547 7.85564 5.21022C7.93064 5.53497 8.39039 5.72622 9.21164 5.64972C11.2171 5.47797 11.1984 4.12122 14.1399 3.85422C16.4319 3.64422 17.7121 4.35072 17.8839 5.21022C18.0174 5.87847 17.4639 6.52797 15.8019 6.66222C14.3311 6.79572 13.4716 6.39447 13.3951 5.99397C13.3569 5.78397 13.4701 5.47797 14.1781 5.40147C14.2531 5.72622 14.6559 6.06972 15.6106 5.97447C16.3029 5.91597 16.8721 5.66397 16.7971 5.28897C16.7221 4.88772 15.9946 4.65897 14.8471 4.75422C12.5169 4.96422 11.9439 6.24447 9.95714 6.41622C8.54714 6.54597 7.40114 6.03072 7.24814 5.26647C7.19114 4.97997 7.19114 4.31172 8.68064 4.17747C9.44489 4.12047 10.0561 4.25322 10.1326 4.55997ZM2.68289 12.5445C2.06363 13.3081 1.75058 14.2748 1.80464 15.2565C1.83599 15.705 1.96298 16.1415 2.17708 16.5369C2.39117 16.9322 2.68741 17.2771 3.04589 17.5485C3.39522 17.8293 3.80305 18.0283 4.2394 18.1309C4.67575 18.2334 5.12953 18.2369 5.56739 18.141C5.95059 18.047 6.32655 17.9257 6.69239 17.778C5.93561 17.7768 5.20404 17.5059 4.62914 17.0137C4.27789 16.7692 3.98112 16.4546 3.75755 16.0897C3.53397 15.7247 3.38844 15.3174 3.33014 14.8935C3.24598 14.5063 3.24346 14.1059 3.32275 13.7177C3.40204 13.3295 3.56139 12.9621 3.79064 12.639C4.04054 12.3216 4.35225 12.0583 4.7069 11.8649C5.06155 11.6715 5.45175 11.5521 5.85389 11.514C6.71489 11.4533 7.56903 11.7041 8.26064 12.2205C8.06353 11.9854 7.8462 11.7681 7.61114 11.571C7.24391 11.2968 6.82005 11.1082 6.37055 11.0189C5.92104 10.9296 5.45727 10.9419 5.01314 11.055C4.0804 11.2503 3.25148 11.7797 2.68289 12.5445ZM12.9219 8.13147C10.8239 8.1477 8.72972 7.94916 6.67214 7.53897C4.97489 7.11897 4.07714 6.66072 4.07714 6.06897C4.07714 5.82072 4.19189 5.61072 4.53539 5.36247C3.46589 5.78247 2.89289 6.12672 2.89289 6.66147C2.94989 7.25397 3.90539 7.84572 5.85389 8.30397C8.1541 8.81821 10.5076 9.05539 12.8641 9.01047C15.2201 9.05812 17.5731 8.8209 19.8721 8.30397C21.8221 7.84572 22.7566 7.23447 22.7566 6.66147C22.7566 6.24147 22.3366 5.83647 21.5724 5.53647C21.6614 5.59126 21.7357 5.66685 21.789 5.75673C21.8423 5.84662 21.873 5.94811 21.8784 6.05247C21.8784 6.64497 20.9994 7.12197 19.2234 7.52322C17.1508 7.95162 15.0381 8.15554 12.9219 8.13147ZM19.9516 9.77397C17.6484 10.269 15.2971 10.506 12.9414 10.4805C10.5668 10.5 8.19711 10.2631 5.87339 9.77397C4.23089 9.35397 3.35189 8.89497 3.04664 8.41797C3.35681 10.4275 4.01679 12.3671 4.99664 14.1487C5.70314 15.2182 6.41039 16.1542 7.11689 17.1667C7.40751 17.7292 7.62575 18.3262 7.76639 18.9435C8.24316 19.5926 8.93371 20.0526 9.71639 20.2425C10.7194 20.6037 11.7847 20.7596 12.8491 20.7007H12.9639C14.058 20.7488 15.1515 20.5934 16.1889 20.2425C16.9423 20.0238 17.6052 19.5683 18.0796 18.9435H18.1366C18.2559 18.328 18.4551 17.7306 18.7291 17.1667C19.4356 16.1542 20.1429 15.2167 20.8494 14.1487C21.8097 12.3587 22.4678 10.4224 22.7971 8.41797C22.4154 8.95272 21.5364 9.41397 19.9509 9.77472L19.9516 9.77397Z" fill="white"/>
</svg>
