<svg width="25" height="25" viewBox="0 0 25 25" fill="none" xmlns="http://www.w3.org/2000/svg">
<path d="M14.4871 14.4542L6.29712 18.2642L10.1071 10.0742L18.2971 6.26416M12.2971 2.26416C10.9839 2.26416 9.68354 2.52282 8.47028 3.02536C7.25703 3.52791 6.15464 4.26451 5.22605 5.19309C3.35069 7.06846 2.29712 9.612 2.29712 12.2642C2.29712 14.9163 3.35069 17.4599 5.22605 19.3352C6.15464 20.2638 7.25703 21.0004 8.47028 21.503C9.68354 22.0055 10.9839 22.2642 12.2971 22.2642C14.9493 22.2642 17.4928 21.2106 19.3682 19.3352C21.2436 17.4599 22.2971 14.9163 22.2971 12.2642C22.2971 10.9509 22.0385 9.65058 21.5359 8.43733C21.0334 7.22407 20.2968 6.12168 19.3682 5.19309C18.4396 4.26451 17.3372 3.52791 16.124 3.02536C14.9107 2.52282 13.6103 2.26416 12.2971 2.26416ZM12.2971 11.1642C12.0054 11.1642 11.7256 11.2801 11.5193 11.4863C11.313 11.6926 11.1971 11.9724 11.1971 12.2642C11.1971 12.5559 11.313 12.8357 11.5193 13.042C11.7256 13.2483 12.0054 13.3642 12.2971 13.3642C12.5889 13.3642 12.8686 13.2483 13.0749 13.042C13.2812 12.8357 13.3971 12.5559 13.3971 12.2642C13.3971 11.9724 13.2812 11.6926 13.0749 11.4863C12.8686 11.2801 12.5889 11.1642 12.2971 11.1642Z" fill="white"/>
</svg>
