<svg width="25" height="25" viewBox="0 0 25 25" fill="none" xmlns="http://www.w3.org/2000/svg">
<path d="M17.7971 18.7642V20.7642C17.7971 20.8975 17.8471 21.0142 17.9471 21.1142C18.0471 21.2142 18.1638 21.2642 18.2971 21.2642C18.4305 21.2642 18.5471 21.2142 18.6471 21.1142C18.7471 21.0142 18.7971 20.8975 18.7971 20.7642V18.7642H20.7971C20.9305 18.7642 21.0471 18.7142 21.1471 18.6142C21.2471 18.5142 21.2971 18.3975 21.2971 18.2642C21.2971 18.1308 21.2471 18.0142 21.1471 17.9142C21.0471 17.8142 20.9305 17.7642 20.7971 17.7642H18.7971V15.7642C18.7971 15.6308 18.7471 15.5142 18.6471 15.4142C18.5471 15.3142 18.4305 15.2642 18.2971 15.2642C18.1638 15.2642 18.0471 15.3142 17.9471 15.4142C17.8471 15.5142 17.7971 15.6308 17.7971 15.7642V17.7642H15.7971C15.6638 17.7642 15.5471 17.8142 15.4471 17.9142C15.3471 18.0142 15.2971 18.1308 15.2971 18.2642C15.2971 18.3975 15.3471 18.5142 15.4471 18.6142C15.5471 18.7142 15.6638 18.7642 15.7971 18.7642H17.7971ZM18.2971 23.2642C16.9138 23.2642 15.7348 22.7765 14.7601 21.8012C13.7855 20.8258 13.2978 19.6468 13.2971 18.2642C13.2965 16.8815 13.7841 15.7025 14.7601 14.7272C15.7361 13.7518 16.9151 13.2642 18.2971 13.2642C19.6791 13.2642 20.8585 13.7518 21.8351 14.7272C22.8118 15.7025 23.2991 16.8815 23.2971 18.2642C23.2951 19.6468 22.8075 20.8262 21.8341 21.8022C20.8608 22.7782 19.6818 23.2655 18.2971 23.2642ZM8.29712 9.26416H16.2971C16.5805 9.26416 16.8181 9.16816 17.0101 8.97616C17.2021 8.78416 17.2978 8.54683 17.2971 8.26416C17.2965 7.98149 17.2005 7.74416 17.0091 7.55216C16.8178 7.36016 16.5805 7.26416 16.2971 7.26416H8.29712C8.01379 7.26416 7.77645 7.36016 7.58512 7.55216C7.39379 7.74416 7.29779 7.98149 7.29712 8.26416C7.29645 8.54683 7.39245 8.78449 7.58512 8.97716C7.77779 9.16983 8.01512 9.26549 8.29712 9.26416ZM5.29712 21.2642C4.74712 21.2642 4.27645 21.0685 3.88512 20.6772C3.49379 20.2858 3.29779 19.8148 3.29712 19.2642V5.26416C3.29712 4.71416 3.49312 4.24349 3.88512 3.85216C4.27712 3.46083 4.74779 3.26483 5.29712 3.26416H19.2971C19.8471 3.26416 20.3181 3.46016 20.7101 3.85216C21.1021 4.24416 21.2978 4.71483 21.2971 5.26416V10.7142C21.2971 11.0142 21.1721 11.2475 20.9221 11.4142C20.6721 11.5808 20.4055 11.6142 20.1221 11.5142C19.8388 11.4308 19.5428 11.3682 19.2341 11.3262C18.9255 11.2842 18.6131 11.2635 18.2971 11.2642C18.1138 11.2642 17.9428 11.2685 17.7841 11.2772C17.6255 11.2858 17.4631 11.3065 17.2971 11.3392C17.1471 11.3058 16.9805 11.2852 16.7971 11.2772C16.6138 11.2692 16.4471 11.2648 16.2971 11.2642H8.29712C8.01379 11.2642 7.77645 11.3602 7.58512 11.5522C7.39379 11.7442 7.29779 11.9815 7.29712 12.2642C7.29645 12.5468 7.39245 12.7845 7.58512 12.9772C7.77779 13.1698 8.01512 13.2655 8.29712 13.2642H13.4221C13.1221 13.5475 12.8515 13.8558 12.6101 14.1892C12.3688 14.5225 12.1561 14.8808 11.9721 15.2642H8.29712C8.01379 15.2642 7.77645 15.3602 7.58512 15.5522C7.39379 15.7442 7.29779 15.9815 7.29712 16.2642C7.29645 16.5468 7.39245 16.7845 7.58512 16.9772C7.77779 17.1698 8.01512 17.2655 8.29712 17.2642H11.3721C11.3388 17.4308 11.3181 17.5935 11.3101 17.7522C11.3021 17.9108 11.2978 18.0815 11.2971 18.2642C11.2971 18.5975 11.3138 18.9142 11.3471 19.2142C11.3805 19.5142 11.4388 19.8058 11.5221 20.0892C11.6055 20.3725 11.5638 20.6392 11.3971 20.8892C11.2305 21.1392 11.0055 21.2642 10.7221 21.2642H5.29712Z" fill="white"/>
</svg>
