<svg width="24" height="25" viewBox="0 0 24 25" fill="none" xmlns="http://www.w3.org/2000/svg">
<g id="basil:location-solid">
<path id="Vector" d="M8.75 10.7188C8.75 9.8568 9.09241 9.03015 9.7019 8.42065C10.3114 7.81116 11.138 7.46875 12 7.46875C12.862 7.46875 13.6886 7.81116 14.2981 8.42065C14.9076 9.03015 15.25 9.8568 15.25 10.7188C15.25 11.5807 14.9076 12.4074 14.2981 13.0168C13.6886 13.6263 12.862 13.9688 12 13.9688C11.138 13.9688 10.3114 13.6263 9.7019 13.0168C9.09241 12.4074 8.75 11.5807 8.75 10.7188Z" fill="#999999"/>
<path id="Vector_2" fill-rule="evenodd" clip-rule="evenodd" d="M3.77401 9.59575C3.94035 7.5855 4.85624 5.71122 6.33998 4.34473C7.82372 2.97825 9.7669 2.21941 11.784 2.21875H12.216C14.2331 2.21941 16.1763 2.97825 17.66 4.34473C19.1438 5.71122 20.0597 7.5855 20.226 9.59575C20.4106 11.8402 19.7177 14.0687 18.293 15.8127L13.5 21.6747C13.3183 21.8971 13.0895 22.0763 12.8301 22.1993C12.5707 22.3224 12.2871 22.3862 12 22.3862C11.7129 22.3862 11.4294 22.3224 11.1699 22.1993C10.9105 22.0763 10.6817 21.8971 10.5 21.6747L5.70801 15.8127C4.28298 14.0688 3.58971 11.8403 3.77401 9.59575ZM12 5.96875C10.7402 5.96875 9.53205 6.4692 8.64126 7.35999C7.75046 8.25079 7.25001 9.45897 7.25001 10.7188C7.25001 11.9785 7.75046 13.1867 8.64126 14.0775C9.53205 14.9683 10.7402 15.4688 12 15.4688C13.2598 15.4688 14.468 14.9683 15.3588 14.0775C16.2496 13.1867 16.75 11.9785 16.75 10.7188C16.75 9.45897 16.2496 8.25079 15.3588 7.35999C14.468 6.4692 13.2598 5.96875 12 5.96875Z" fill="#999999"/>
</g>
</svg>
