<svg width="25" height="25" viewBox="0 0 25 25" fill="none" xmlns="http://www.w3.org/2000/svg">
<path d="M11.1069 4.94287V10.9429C11.1069 12.0479 9.09193 12.9429 6.60693 12.9429C4.12193 12.9429 2.10693 12.0479 2.10693 10.9429V4.94287" stroke="#5C5454" stroke-width="2" stroke-linecap="round" stroke-linejoin="round"/>
<path d="M11.1069 7.94287C11.1069 9.04787 9.09193 9.94287 6.60693 9.94287C4.12193 9.94287 2.10693 9.04787 2.10693 7.94287" stroke="#5C5454" stroke-width="2" stroke-linecap="round" stroke-linejoin="round"/>
<path d="M11.1069 4.94287C11.1069 6.04787 9.09193 6.94287 6.60693 6.94287C4.12193 6.94287 2.10693 6.04787 2.10693 4.94287C2.10693 3.83787 4.12193 2.94287 6.60693 2.94287C9.09193 2.94287 11.1069 3.83787 11.1069 4.94287Z" fill="#5C5454" stroke="#5C5454" stroke-width="2" stroke-linecap="round" stroke-linejoin="round"/>
<path d="M16.1069 3.94287H19.1069C19.6374 3.94287 20.1461 4.15358 20.5211 4.52866C20.8962 4.90373 21.1069 5.41244 21.1069 5.94287V8.94287M8.10693 21.9429H5.10693C4.5765 21.9429 4.06779 21.7322 3.69272 21.3571C3.31765 20.982 3.10693 20.4733 3.10693 19.9429V16.9429" stroke="#5C5454" stroke-width="2" stroke-linecap="round" stroke-linejoin="round"/>
<path d="M17.6069 17.9429C18.9876 17.9429 20.1069 16.8236 20.1069 15.4429C20.1069 14.0622 18.9876 12.9429 17.6069 12.9429C16.2262 12.9429 15.1069 14.0622 15.1069 15.4429C15.1069 16.8236 16.2262 17.9429 17.6069 17.9429Z" fill="#5C5454" stroke="#5C5454" stroke-width="2" stroke-linecap="round" stroke-linejoin="round"/>
<path d="M22.1069 22.9429H13.1069C13.1069 22.3519 13.2233 21.7668 13.4495 21.2208C13.6756 20.6748 14.0071 20.1788 14.425 19.7609C14.8428 19.343 15.3389 19.0116 15.8849 18.7854C16.4308 18.5593 17.016 18.4429 17.6069 18.4429C18.1979 18.4429 18.783 18.5593 19.329 18.7854C19.875 19.0116 20.371 19.343 20.7889 19.7609C21.2068 20.1788 21.5382 20.6748 21.7644 21.2208C21.9905 21.7668 22.1069 22.3519 22.1069 22.9429Z" fill="#5C5454" stroke="#5C5454" stroke-width="2" stroke-linecap="round" stroke-linejoin="round"/>
</svg>
