<svg width="24" height="25" viewBox="0 0 24 25" fill="none" xmlns="http://www.w3.org/2000/svg">
<g id="material-symbols:edit-location-alt-rounded">
<path id="Vector" d="M12 21.6047C11.7667 21.6047 11.5333 21.563 11.3 21.4797C11.0667 21.3964 10.8583 21.2714 10.675 21.1047C9.59167 20.1047 8.63333 19.1297 7.8 18.1797C6.96667 17.2297 6.271 16.309 5.713 15.4177C5.155 14.5264 4.73 13.668 4.438 12.8427C4.146 12.0174 4 11.2297 4 10.4797C4 7.97969 4.80433 5.98802 6.413 4.50469C8.02167 3.02135 9.884 2.27969 12 2.27969H12.375C12.4917 2.27969 12.6083 2.28802 12.725 2.30469C13.1417 2.33802 13.4167 2.55902 13.55 2.96769C13.6833 3.37635 13.5833 3.74702 13.25 4.07969L9.575 7.77969C9.39167 7.96302 9.25 8.17569 9.15 8.41769C9.05 8.65969 9 8.91369 9 9.17969V11.2797C9 11.8297 9.196 12.3004 9.588 12.6917C9.98 13.083 10.4507 13.279 11 13.2797H13.1C13.3667 13.2797 13.621 13.2297 13.863 13.1297C14.105 13.0297 14.3173 12.888 14.5 12.7047L18.175 9.02969C18.4917 8.71302 18.85 8.62135 19.25 8.75469C19.65 8.88802 19.8833 9.16302 19.95 9.57969C19.9667 9.72969 19.979 9.87969 19.987 10.0297C19.995 10.1797 19.9993 10.3297 20 10.4797C20 12.0464 19.4333 13.7254 18.3 15.5167C17.1667 17.308 15.5083 19.1707 13.325 21.1047C13.1417 21.2714 12.9333 21.3964 12.7 21.4797C12.4667 21.563 12.2333 21.6047 12 21.6047ZM13.4 10.9797L18.95 5.42969C19.05 5.32969 19.1 5.21302 19.1 5.07969C19.1 4.94635 19.05 4.82969 18.95 4.72969L17.55 3.32969C17.45 3.22969 17.3333 3.17969 17.2 3.17969C17.0667 3.17969 16.95 3.22969 16.85 3.32969L11.3 8.87969C11.2 8.97969 11.125 9.09235 11.075 9.21769C11.025 9.34302 11 9.47202 11 9.60469V10.5297C11 10.7464 11.071 10.9257 11.213 11.0677C11.355 11.2097 11.534 11.2804 11.75 11.2797H12.675C12.8083 11.2797 12.9377 11.2547 13.063 11.2047C13.1883 11.1547 13.3007 11.0797 13.4 10.9797ZM19.65 4.02969C19.75 4.12969 19.8667 4.17969 20 4.17969C20.1333 4.17969 20.25 4.12969 20.35 4.02969L20.7 3.67969C20.8833 3.49635 20.975 3.26302 20.975 2.97969C20.975 2.69635 20.8833 2.46302 20.7 2.27969L20 1.57969C19.8167 1.39635 19.5833 1.30469 19.3 1.30469C19.0167 1.30469 18.7833 1.39635 18.6 1.57969L18.25 1.92969C18.15 2.02969 18.1 2.14635 18.1 2.27969C18.1 2.41302 18.15 2.52969 18.25 2.62969L19.65 4.02969Z" fill="#173956"/>
</g>
</svg>
