<svg width="25" height="24" viewBox="0 0 25 24" fill="none" xmlns="http://www.w3.org/2000/svg">
<path fill-rule="evenodd" clip-rule="evenodd" d="M11.6628 2.53934V0.881836H13.3503V2.53934C15.7363 2.73116 17.9744 3.73096 19.6674 5.36124C21.3604 6.99152 22.3986 9.14677 22.5978 11.4443H24.3191V13.0693H22.5978C22.3986 15.3669 21.3604 17.5222 19.6674 19.1524C17.9744 20.7827 15.7363 21.7825 13.3503 21.9743V23.6318H11.6628V21.9743C9.27691 21.7825 7.03876 20.7827 5.34578 19.1524C3.6528 17.5222 2.61454 15.3669 2.41534 13.0693H0.694092V11.4443H2.41534C2.61454 9.14677 3.6528 6.99152 5.34578 5.36124C7.03876 3.73096 9.27691 2.73116 11.6628 2.53934ZM11.6628 4.17246C9.72627 4.35986 7.91654 5.18622 6.54028 6.5115C5.16403 7.83678 4.30589 9.57949 4.11128 11.4443H5.75659V13.0693H4.11128C4.30589 14.9342 5.16403 16.6769 6.54028 18.0022C7.91654 19.3275 9.72627 20.1538 11.6628 20.3412V18.7568H13.3503V20.3412C15.2869 20.1538 17.0966 19.3275 18.4729 18.0022C19.8492 16.6769 20.7073 14.9342 20.9019 13.0693H19.2566V11.4443H20.9019C20.7073 9.57949 19.8492 7.83678 18.4729 6.5115C17.0966 5.18622 15.2869 4.35986 13.3503 4.17246V5.75684H11.6628V4.17246Z" fill="#173956"/>
</svg>
