<svg width="25" height="25" viewBox="0 0 25 25" fill="none" xmlns="http://www.w3.org/2000/svg">
<path d="M20.0671 7.49416L20.0771 7.48416L16.3571 3.76416L15.2971 4.82416L17.4071 6.93416C16.4671 7.29416 15.7971 8.19416 15.7971 9.26416C15.7971 9.59246 15.8618 9.91755 15.9874 10.2209C16.1131 10.5242 16.2972 10.7998 16.5294 11.0319C16.9982 11.5008 17.6341 11.7642 18.2971 11.7642C18.6571 11.7642 18.9871 11.6842 19.2971 11.5542V18.7642C19.2971 19.3142 18.8471 19.7642 18.2971 19.7642C17.7471 19.7642 17.2971 19.3142 17.2971 18.7642V14.2642C17.2971 13.1642 16.3971 12.2642 15.2971 12.2642H14.2971V5.26416C14.2971 4.16416 13.3971 3.26416 12.2971 3.26416H6.29712C5.19712 3.26416 4.29712 4.16416 4.29712 5.26416V21.2642H14.2971V13.7642H15.7971V18.7642C15.7971 19.4272 16.0605 20.0631 16.5294 20.5319C16.9982 21.0008 17.6341 21.2642 18.2971 21.2642C18.9602 21.2642 19.596 21.0008 20.0649 20.5319C20.5337 20.0631 20.7971 19.4272 20.7971 18.7642V9.26416C20.7971 8.57416 20.5171 7.94416 20.0671 7.49416ZM12.2971 10.2642H6.29712V5.26416H12.2971V10.2642ZM18.2971 10.2642C17.7471 10.2642 17.2971 9.81416 17.2971 9.26416C17.2971 8.71416 17.7471 8.26416 18.2971 8.26416C18.8471 8.26416 19.2971 8.71416 19.2971 9.26416C19.2971 9.81416 18.8471 10.2642 18.2971 10.2642Z" fill="white"/>
</svg>
