<svg width="25" height="25" viewBox="0 0 25 25" fill="none" xmlns="http://www.w3.org/2000/svg">
<path d="M12.0569 18.9429C12.4069 18.9429 12.7029 18.8219 12.9449 18.5799C13.1869 18.3379 13.3076 18.0422 13.3069 17.6929C13.3063 17.3435 13.1856 17.0475 12.9449 16.8049C12.7043 16.5622 12.4083 16.4415 12.0569 16.4429C11.7056 16.4442 11.4099 16.5652 11.1699 16.8059C10.9299 17.0465 10.8089 17.3422 10.8069 17.6929C10.8049 18.0435 10.9259 18.3395 11.1699 18.5809C11.4139 18.8222 11.7096 18.9429 12.0569 18.9429ZM11.1569 15.0929H13.0069C13.0069 14.5429 13.0696 14.1095 13.1949 13.7929C13.3203 13.4762 13.6743 13.0429 14.2569 12.4929C14.6903 12.0595 15.0319 11.6469 15.2819 11.2549C15.5319 10.8629 15.6569 10.3922 15.6569 9.84288C15.6569 8.90954 15.3153 8.19288 14.6319 7.69288C13.9486 7.19288 13.1403 6.94288 12.2069 6.94288C11.2569 6.94288 10.4863 7.19288 9.89494 7.69288C9.3036 8.19288 8.89094 8.79288 8.65694 9.49288L10.3069 10.1429C10.3903 9.84288 10.5779 9.51788 10.8699 9.16788C11.1619 8.81788 11.6076 8.64288 12.2069 8.64288C12.7403 8.64288 13.1403 8.78888 13.4069 9.08088C13.6736 9.37288 13.8069 9.69354 13.8069 10.0429C13.8069 10.3762 13.7069 10.6889 13.5069 10.9809C13.3069 11.2729 13.0569 11.5435 12.7569 11.7929C12.0236 12.4429 11.5736 12.9345 11.4069 13.2679C11.2403 13.6012 11.1569 14.2095 11.1569 15.0929ZM12.1069 22.9429C10.7236 22.9429 9.4236 22.6805 8.20694 22.1559C6.99027 21.6312 5.93193 20.9185 5.03193 20.0179C4.13194 19.1172 3.4196 18.0589 2.89493 16.8429C2.37027 15.6269 2.1076 14.3269 2.10693 12.9429C2.10627 11.5589 2.36893 10.2589 2.89493 9.04288C3.42093 7.82688 4.13327 6.76854 5.03193 5.86788C5.9306 4.96721 6.98894 4.25488 8.20694 3.73088C9.42494 3.20688 10.7249 2.94421 12.1069 2.94288C13.4889 2.94154 14.7889 3.20421 16.0069 3.73088C17.2249 4.25754 18.2833 4.96988 19.1819 5.86788C20.0806 6.76588 20.7933 7.82421 21.3199 9.04288C21.8466 10.2615 22.1089 11.5615 22.1069 12.9429C22.1049 14.3242 21.8423 15.6242 21.3189 16.8429C20.7956 18.0615 20.0833 19.1199 19.1819 20.0179C18.2806 20.9159 17.2223 21.6285 16.0069 22.1559C14.7916 22.6832 13.4916 22.9455 12.1069 22.9429Z" fill="#5C5454"/>
</svg>
