<svg width="25" height="25" viewBox="0 0 25 25" fill="none" xmlns="http://www.w3.org/2000/svg">
<path id="Vector" d="M0.3396 21.722V9.37913C0.3396 8.94484 0.446099 8.53341 0.659099 8.14484C0.872099 7.75627 1.1656 7.43627 1.5396 7.18484L10.5396 1.01342C11.0646 0.647701 11.6646 0.464844 12.3396 0.464844C13.0146 0.464844 13.6146 0.647701 14.1396 1.01342L23.1396 7.18484C23.5146 7.43627 23.8086 7.75627 24.0216 8.14484C24.2346 8.53341 24.3406 8.94484 24.3396 9.37913V21.722C24.3396 22.4763 24.0456 23.1222 23.4576 23.6598C22.8696 24.1974 22.1636 24.4658 21.3396 24.4648H16.8396C16.4146 24.4648 16.0586 24.3332 15.7716 24.0699C15.4846 23.8066 15.3406 23.4811 15.3396 23.0934V16.2363C15.3396 15.8477 15.1956 15.5222 14.9076 15.2598C14.6196 14.9974 14.2636 14.8658 13.8396 14.8648H10.8396C10.4146 14.8648 10.0586 14.9965 9.7716 15.2598C9.4846 15.5231 9.3406 15.8486 9.3396 16.2363V23.0934C9.3396 23.482 9.1956 23.8079 8.9076 24.0712C8.6196 24.3346 8.2636 24.4658 7.8396 24.4648H3.3396C2.5146 24.4648 1.8086 24.1965 1.2216 23.6598C0.634599 23.1231 0.3406 22.4772 0.3396 21.722Z" fill="#173956"/>
</svg>
