<svg width="25" height="25" viewBox="0 0 25 25" fill="none" xmlns="http://www.w3.org/2000/svg">
<g clip-path="url(#clip0_183_2289)">
<path d="M1.11464 17.9302C1.11464 17.9302 1.10339 5.93961 1.10339 5.59648C1.10339 5.21961 1.30027 5.15398 1.61527 5.14461C1.91714 5.13523 22.7053 5.12586 23.0334 5.13523C23.4628 5.14648 23.5021 5.41648 23.5171 5.75961C23.5321 6.10273 23.5209 17.9396 23.5209 17.9396L11.7778 18.1571L1.11464 17.9302Z" fill="#BACFD4"/>
<path d="M1.11462 17.9302C1.11462 17.9302 1.12025 22.9064 1.12025 23.1652C1.12025 23.4239 1.30775 23.6114 1.66212 23.6114C2.0165 23.6114 22.7727 23.5645 23.0559 23.5645C23.339 23.5645 23.5021 23.3058 23.5265 22.8821C23.5509 22.4583 23.5246 17.9377 23.5246 17.9377L1.11462 17.9302Z" fill="#6BA4AE"/>
<path d="M6.64026 19.4962L6.66088 23.5969H17.7834L17.8021 19.4175L6.64026 19.4962Z" fill="#546F7A"/>
<path d="M7.81592 19.7022V23.5929H8.43467V19.6479L7.81592 19.7022ZM11.9278 19.6291V23.5872H12.554V19.5691L11.9278 19.6291ZM16.1672 19.6366V23.5966H16.8103V19.5522L16.1672 19.6366Z" fill="#B9CED3"/>
<path d="M7.69395 17.9772C7.69395 17.9772 7.62833 1.94779 7.62833 1.60092C7.62833 1.25404 7.76145 0.980293 8.10833 0.957793C8.4552 0.935293 15.9383 0.935293 16.2421 0.957793C16.5458 0.980293 16.739 1.16779 16.739 1.55779C16.739 1.94779 16.7821 17.9772 16.7821 17.9772L19.949 18.3672V19.3215C19.949 19.6253 19.8402 19.7453 19.5252 19.7453H4.7202C4.43895 19.7453 4.35083 19.4528 4.35083 19.149V18.129L7.69395 17.9772Z" fill="#F1EDEC"/>
<path d="M4.35832 18.4613L19.9489 18.4538C19.9489 18.4538 19.9583 18.1181 19.9489 17.9513C19.9358 17.715 19.7352 17.7075 19.2777 17.7075H4.72207C4.52332 17.7075 4.36957 17.7769 4.35457 17.9756C4.33957 18.1744 4.35832 18.4519 4.35832 18.4613Z" fill="#FEFFFD"/>
<path d="M9.20145 12.5284C9.24458 12.5715 15.0721 12.5978 15.1096 12.5584C15.1433 12.5228 15.1696 10.3665 15.1246 10.3215C15.0665 10.2634 9.24645 10.2765 9.20145 10.3215C9.15645 10.3665 9.15645 12.4815 9.20145 12.5284ZM9.21645 14.3565C9.13957 14.3828 9.20145 16.5484 9.20145 16.5484L15.1396 16.5034C15.1396 16.5034 15.1921 14.4071 15.0946 14.3584C15.0346 14.3265 9.30832 14.3265 9.21645 14.3565ZM17.5583 6.6034V8.99215H19.8102V6.5734L17.5583 6.6034ZM20.7008 6.5734H22.8327L22.8627 8.96215H20.6858L20.7008 6.5734ZM20.6708 10.3815L20.6558 12.6934H22.8177L22.8477 10.3815H20.6708ZM19.8102 10.3665H17.5433V12.6934H19.8402L19.8102 10.3665ZM19.8252 14.2046H17.5583V16.5765H19.8552C19.8552 16.5784 19.7952 14.1746 19.8252 14.2046ZM20.6708 14.1896H22.8158V16.6084H20.6708C20.6708 16.6084 20.6933 14.1671 20.6708 14.1896ZM4.86458 16.5465V14.1446L7.07145 14.1146V16.5165L4.86458 16.5465ZM4.01895 16.5315V14.1296H1.76708L1.78208 16.5634C1.78208 16.5615 4.04895 16.5315 4.01895 16.5315ZM1.75208 10.3215H4.03395V12.6334H1.75208V10.3215ZM4.89458 10.3065V12.6334H7.04145V10.3215L4.89458 10.3065ZM4.92458 6.4834H7.00957V8.91715H4.92458V6.4834ZM3.98895 6.5734L1.78208 6.5584V8.88527H3.98895V6.5734Z" fill="#546F7A"/>
<path d="M10.9734 4.16047C10.9734 4.16047 10.9697 1.84484 10.9865 1.68734C11.0015 1.52797 11.0972 1.49609 11.2097 1.49609C11.3203 1.49609 13.244 1.49609 13.3547 1.51109C13.4653 1.52609 13.514 1.62172 13.514 1.79797V4.14922C13.514 4.14922 15.8015 4.16422 15.8972 4.16422C15.9928 4.16422 16.0884 4.27484 16.0884 4.40234V6.49859C16.0884 6.64109 16.0734 6.78547 15.8972 6.81547C15.7209 6.84547 13.499 6.81547 13.499 6.81547V9.45734C13.499 9.56609 13.4072 9.65984 13.2534 9.67109C13.0997 9.68234 11.1928 9.67109 11.0859 9.67109C10.979 9.67109 10.979 9.35047 10.979 9.24172V6.87172H8.48903C8.38028 6.87172 8.3334 6.76484 8.32215 6.56234C8.3109 6.35984 8.32965 4.52609 8.3334 4.41922C8.3409 4.25234 8.40465 4.17172 8.52278 4.16047C8.63903 4.15109 10.9734 4.16047 10.9734 4.16047Z" fill="#DD0C26"/>
<path d="M11.9465 2.43359H12.539V8.82734H11.9465V2.43359Z" fill="white"/>
<path d="M9.23901 5.18799H15.1565V5.78986H9.23901V5.18799Z" fill="white"/>
</g>
<defs>
<clipPath id="clip0_183_2289">
<rect width="24" height="24" fill="white" transform="translate(0.297119 0.26416)"/>
</clipPath>
</defs>
</svg>
