<svg width="25" height="25" viewBox="0 0 25 25" fill="none" xmlns="http://www.w3.org/2000/svg">
<path d="M16.0471 6.27616C16.0483 5.7828 15.9522 5.29406 15.7643 4.83788C15.5764 4.3817 15.3004 3.96704 14.9521 3.61763C14.6038 3.26822 14.1901 2.99091 13.7345 2.80156C13.2789 2.61222 12.7905 2.51455 12.2971 2.51416C10.2271 2.51416 8.54712 4.20016 8.54712 6.27616V6.26416H2.54712V22.7642H22.0471V6.26416H16.0471V6.27616Z" fill="#FFDEA7"/>
<path d="M8.54712 6.26416V22.7642H7.79712V6.26416H8.54712ZM16.7971 6.26416H16.0471V22.7642H16.7971V6.26416Z" fill="#F3AD61"/>
<path d="M15.2971 15.2642H9.29712V21.2642H15.2971V15.2642Z" fill="#F3C07B"/>
<path d="M4.79712 16.2437V18.0309C4.79712 18.1584 4.69212 18.2642 4.55712 18.2642H3.52962C3.40212 18.2642 3.29712 18.1592 3.29712 18.0317V16.2437C3.29712 16.1162 3.40212 16.0112 3.52962 16.0112H4.56462C4.69212 16.0112 4.79712 16.1162 4.79712 16.2437ZM7.04712 16.2437V18.0309C7.04712 18.1584 6.94212 18.2642 6.80712 18.2642H5.77962C5.65212 18.2642 5.54712 18.1592 5.54712 18.0317V16.2437C5.54712 16.1162 5.65212 16.0112 5.77962 16.0112H6.81462C6.94212 16.0112 7.04712 16.1162 7.04712 16.2437ZM4.79712 12.4877V14.2757C4.79712 14.4032 4.69212 14.5082 4.55712 14.5082H3.52962C3.40212 14.5082 3.29712 14.4032 3.29712 14.2757V12.4877C3.29712 12.3602 3.40212 12.2552 3.52962 12.2552H4.56462C4.69212 12.2552 4.79712 12.3602 4.79712 12.4877ZM7.04712 12.4877V14.2757C7.04712 14.4032 6.94212 14.5082 6.80712 14.5082H5.77962C5.65212 14.5082 5.54712 14.4032 5.54712 14.2757V12.4877C5.54712 12.3602 5.65212 12.2552 5.77962 12.2552H6.81462C6.94212 12.2552 7.04712 12.3602 7.04712 12.4877ZM4.79712 8.74666V10.5347C4.79712 10.6622 4.69212 10.7672 4.55712 10.7672H3.52962C3.40212 10.7672 3.29712 10.6622 3.29712 10.5347V8.74666C3.29712 8.61916 3.40212 8.51416 3.52962 8.51416H4.56462C4.69212 8.51416 4.79712 8.61916 4.79712 8.74666ZM7.04712 8.74666V10.5347C7.04712 10.6622 6.94212 10.7672 6.80712 10.7672H5.77962C5.65212 10.7672 5.54712 10.6622 5.54712 10.5347V8.74666C5.54712 8.61916 5.65212 8.51416 5.77962 8.51416H6.81462C6.94212 8.51416 7.04712 8.61916 7.04712 8.74666ZM19.0426 16.2437V18.0309C19.0426 18.1584 18.9376 18.2642 18.8101 18.2642H17.7796C17.749 18.2643 17.7187 18.2583 17.6904 18.2467C17.6621 18.235 17.6364 18.2179 17.6147 18.1963C17.5931 18.1747 17.5759 18.1491 17.5641 18.1208C17.5524 18.0926 17.5464 18.0623 17.5464 18.0317V16.2437C17.5464 16.1162 17.6514 16.0112 17.7789 16.0112H18.8086C18.9361 16.0112 19.0426 16.1162 19.0426 16.2437ZM21.2971 16.2437V18.0309C21.2971 18.1584 21.1921 18.2642 21.0646 18.2642H20.0349C20.0043 18.2643 19.974 18.2583 19.9457 18.2467C19.9174 18.235 19.8917 18.2179 19.87 18.1963C19.8483 18.1747 19.8311 18.1491 19.8194 18.1208C19.8077 18.0926 19.8016 18.0623 19.8016 18.0317V16.2437C19.8016 16.1162 19.9066 16.0112 20.0341 16.0112H21.0639C21.1914 16.0112 21.2971 16.1162 21.2971 16.2437ZM19.0426 12.4877V14.2757C19.0426 14.4032 18.9376 14.5082 18.8101 14.5082H17.7796C17.749 14.5083 17.7187 14.5023 17.6904 14.4907C17.6621 14.479 17.6364 14.4619 17.6147 14.4403C17.5931 14.4187 17.5759 14.3931 17.5641 14.3648C17.5524 14.3366 17.5464 14.3063 17.5464 14.2757V12.4877C17.5464 12.3602 17.6514 12.2552 17.7789 12.2552H18.8086C18.9361 12.2552 19.0426 12.3602 19.0426 12.4877ZM21.2971 12.4877V14.2757C21.2971 14.4032 21.1921 14.5082 21.0646 14.5082H20.0349C20.0043 14.5083 19.974 14.5023 19.9457 14.4907C19.9174 14.479 19.8917 14.4619 19.87 14.4403C19.8483 14.4187 19.8311 14.3931 19.8194 14.3648C19.8077 14.3366 19.8016 14.3063 19.8016 14.2757V12.4877C19.8016 12.3602 19.9066 12.2552 20.0341 12.2552H21.0639C21.1914 12.2552 21.2971 12.3602 21.2971 12.4877ZM19.0426 8.74666V10.5347C19.0426 10.6622 18.9376 10.7672 18.8101 10.7672H17.7796C17.749 10.7673 17.7187 10.7613 17.6904 10.7497C17.6621 10.738 17.6364 10.7209 17.6147 10.6993C17.5931 10.6777 17.5759 10.6521 17.5641 10.6238C17.5524 10.5956 17.5464 10.5653 17.5464 10.5347V8.74666C17.5464 8.61916 17.6514 8.51416 17.7789 8.51416H18.8086C18.9361 8.51416 19.0426 8.61916 19.0426 8.74666ZM21.2971 8.74666V10.5347C21.2971 10.6622 21.1921 10.7672 21.0646 10.7672H20.0349C20.0043 10.7673 19.974 10.7613 19.9457 10.7497C19.9174 10.738 19.8917 10.7209 19.87 10.6993C19.8483 10.6777 19.8311 10.6521 19.8194 10.6238C19.8077 10.5956 19.8016 10.5653 19.8016 10.5347V8.74666C19.8016 8.61916 19.9066 8.51416 20.0341 8.51416H21.0639C21.1914 8.51416 21.2971 8.61916 21.2971 8.74666ZM11.5471 12.0317V10.2467C11.5471 10.1192 11.4421 10.0142 11.3131 10.0142H10.2811C10.2194 10.0144 10.1602 10.0389 10.1164 10.0824C10.0726 10.1259 10.0477 10.1849 10.0471 10.2467V12.0317C10.0471 12.1592 10.1521 12.2642 10.2811 12.2642H11.3131C11.4414 12.2642 11.5471 12.1592 11.5471 12.0317ZM14.5471 10.2467V12.0317C14.5471 12.1592 14.4421 12.2642 14.3131 12.2642H13.2811C13.2505 12.2644 13.2201 12.2585 13.1917 12.2469C13.1633 12.2353 13.1375 12.2182 13.1157 12.1966C13.094 12.175 13.0767 12.1493 13.065 12.121C13.0532 12.0927 13.0471 12.0623 13.0471 12.0317V10.2467C13.0471 10.1192 13.1521 10.0142 13.2811 10.0142H14.3131C14.4414 10.0142 14.5471 10.1192 14.5471 10.2467ZM11.6499 20.5142H10.3194C10.2832 20.514 10.2475 20.5066 10.2142 20.4925C10.1809 20.4785 10.1507 20.4579 10.1254 20.4321C10.1001 20.4063 10.0802 20.3758 10.0667 20.3422C10.0533 20.3087 10.0466 20.2728 10.0471 20.2367V15.5417C10.0471 15.3917 10.1649 15.2642 10.3194 15.2642H11.6499C11.7969 15.2642 11.9221 15.3842 11.9221 15.5417V20.2367C11.9221 20.3942 11.7969 20.5142 11.6499 20.5142ZM12.9444 20.5142H14.2749C14.4219 20.5142 14.5471 20.3942 14.5471 20.2367V15.5417C14.5471 15.3842 14.4219 15.2642 14.2749 15.2642H12.9444C12.9082 15.2644 12.8725 15.2717 12.8392 15.2858C12.8059 15.2999 12.7757 15.3204 12.7504 15.3462C12.7251 15.372 12.7052 15.4025 12.6917 15.4361C12.6783 15.4696 12.6716 15.5055 12.6721 15.5417V20.2367C12.6721 20.3942 12.7974 20.5142 12.9444 20.5142Z" fill="#83CBFF"/>
<path d="M16.1597 4.02916H21.1772C21.8679 4.02916 22.4507 4.52491 22.6847 5.22091C22.7897 5.53441 22.8309 5.84341 22.5684 6.09391C22.4438 6.21208 22.2789 6.27833 22.1072 6.27916H16.0172L16.0127 6.26566C16.0062 6.25166 16.0027 6.23616 16.0022 6.21916C16.0022 5.98666 15.9797 5.75416 15.9347 5.52916C15.8297 4.97416 15.5897 4.47166 15.2672 4.02916C14.9246 3.56067 14.4765 3.17941 13.9593 2.91621C13.442 2.65302 12.87 2.51528 12.2897 2.51416C11.0672 2.51416 9.98715 3.11416 9.31215 4.02916C8.98965 4.47166 8.74965 4.97416 8.64465 5.52916C8.59965 5.75416 8.57715 5.98666 8.57715 6.21916C8.57676 6.22957 8.57421 6.23979 8.56965 6.24916C8.56515 6.25816 8.56265 6.26816 8.56215 6.27916H2.47215C2.37471 6.27927 2.27842 6.25804 2.19006 6.21697C2.10169 6.17589 2.02339 6.11597 1.96065 6.04141C1.76565 5.81191 1.7904 5.55991 1.8684 5.28841C2.0769 4.55716 2.6739 4.02916 3.38715 4.02916H8.40465C8.7931 3.3426 9.3566 2.77127 10.0377 2.37339C10.7189 1.97551 11.4933 1.7653 12.2822 1.76416C13.071 1.7653 13.8454 1.97551 14.5266 2.37339C15.2077 2.77127 15.7712 3.3426 16.1597 4.02916ZM13.4304 4.76416H13.4154C13.3182 4.76456 13.2251 4.80345 13.1565 4.87233C13.0879 4.9412 13.0494 5.03445 13.0494 5.13166V6.26416H11.5457V5.13166C11.5457 5.03419 11.5069 4.94072 11.438 4.8718C11.3691 4.80288 11.2756 4.76416 11.1782 4.76416H11.1632C11.0659 4.76456 10.9729 4.80345 10.9043 4.87233C10.8357 4.9412 10.7972 5.03445 10.7972 5.13166V8.14666C10.7972 8.34916 10.9622 8.51416 11.1639 8.51416H11.1789C11.2762 8.51396 11.3695 8.47516 11.4383 8.40626C11.507 8.33736 11.5457 8.244 11.5457 8.14666V7.02166H13.0494V8.14666C13.0494 8.34916 13.2137 8.51416 13.4154 8.51416H13.4304C13.5277 8.51396 13.621 8.47516 13.6898 8.40626C13.7585 8.33736 13.7972 8.244 13.7972 8.14666V5.13166C13.7972 5.03432 13.7585 4.94096 13.6898 4.87206C13.621 4.80317 13.5277 4.76436 13.4304 4.76416ZM16.7897 22.7642H7.79715V22.4792C7.79715 22.2242 8.00715 22.0142 8.2629 22.0142H8.54715V21.6887C8.54715 21.4539 8.73465 21.2642 8.96715 21.2642H15.6272C15.8597 21.2642 16.0472 21.4539 16.0472 21.6887V22.0142H16.3314C16.5864 22.0142 16.7972 22.2242 16.7972 22.4792V22.7642H16.7897ZM15.6422 15.5342C15.6392 15.5302 15.6379 15.5252 15.6384 15.5192C15.6389 15.5132 15.6377 15.5082 15.6347 15.5042C15.2921 14.926 14.8049 14.4469 14.221 14.1142C13.6372 13.7815 12.9767 13.6066 12.3047 13.6067C11.6326 13.6066 10.9722 13.7815 10.3883 14.1142C9.80437 14.4469 9.31718 14.926 8.97465 15.5042V15.5109C8.97415 15.5124 8.97165 15.5152 8.96715 15.5192C8.94465 15.5642 8.92215 15.6167 8.92215 15.6767C8.92215 15.8642 9.07365 16.0142 9.26265 16.0142H15.3317C15.3762 16.0146 15.4204 16.0061 15.4617 15.9893C15.503 15.9726 15.5406 15.9478 15.5722 15.9164C15.6039 15.885 15.629 15.8477 15.6462 15.8065C15.6633 15.7654 15.6722 15.7212 15.6722 15.6767C15.674 15.6274 15.6637 15.5785 15.6422 15.5342Z" fill="#F8312F"/>
</svg>
