<svg width="25" height="25" viewBox="0 0 25 25" fill="none" xmlns="http://www.w3.org/2000/svg">
<path fill-rule="evenodd" clip-rule="evenodd" d="M7.23584 3.89473L5.89784 8.79823L5.87684 8.88523C3.30134 9.29473 1.63184 9.95173 1.63184 10.6927C1.63184 11.9347 6.33284 12.9427 12.1318 12.9427C17.9308 12.9427 22.6318 11.9347 22.6318 10.6927C22.6318 9.95173 20.9623 9.29473 18.3868 8.88523L18.3658 8.79823L17.0278 3.89323C16.8088 3.09373 15.9808 2.61973 15.1693 2.79223C14.2483 2.98723 13.0618 3.19273 12.1318 3.19273C11.2018 3.19273 10.0153 2.98873 9.09434 2.79223C8.28284 2.61973 7.45484 3.09223 7.23584 3.89473ZM7.25834 9.69523C7.26321 9.64616 7.27772 9.59854 7.30102 9.55508C7.32433 9.51163 7.35597 9.4732 7.39415 9.44199C7.43232 9.41078 7.47628 9.3874 7.5235 9.3732C7.57072 9.359 7.62028 9.35425 7.66934 9.35923C9.01934 9.49723 10.5343 9.57373 12.1318 9.57373C13.622 9.57616 15.1113 9.50457 16.5943 9.35923C16.6934 9.34928 16.7923 9.3791 16.8694 9.44211C16.9465 9.50512 16.9954 9.59617 17.0053 9.69523C17.0153 9.79429 16.9855 9.89324 16.9225 9.97032C16.8594 10.0474 16.7684 10.0963 16.6693 10.1062C15.2923 10.2457 13.7533 10.3237 12.1318 10.3237C10.5103 10.3237 8.97134 10.2457 7.59434 10.1062C7.54527 10.1014 7.49764 10.0868 7.45419 10.0635C7.41073 10.0402 7.3723 10.0086 7.34109 9.97042C7.30988 9.93224 7.28651 9.88828 7.27231 9.84106C7.25811 9.79384 7.25336 9.74429 7.25834 9.69523ZM5.38184 15.9427H8.38184C8.58075 15.9427 8.77151 16.0217 8.91217 16.1624C9.05282 16.3031 9.13184 16.4938 9.13184 16.6927V18.1927C9.13184 18.7895 8.89478 19.3618 8.47283 19.7837C8.05087 20.2057 7.47857 20.4427 6.88184 20.4427C6.2851 20.4427 5.7128 20.2057 5.29085 19.7837C4.86889 19.3618 4.63184 18.7895 4.63184 18.1927V16.6927C4.63184 16.4938 4.71085 16.3031 4.85151 16.1624C4.99216 16.0217 5.18292 15.9427 5.38184 15.9427ZM3.13184 16.6927C3.13284 16.4287 3.17534 16.1787 3.25934 15.9427H3.13184C2.93292 15.9427 2.74216 15.8637 2.60151 15.7231C2.46085 15.5824 2.38184 15.3916 2.38184 15.1927C2.38184 14.9938 2.46085 14.8031 2.60151 14.6624C2.74216 14.5217 2.93292 14.4427 3.13184 14.4427H8.38184C8.92969 14.4428 9.4587 14.6427 9.86963 15.0051C10.2806 15.3674 10.5452 15.8672 10.6138 16.4107C11.6038 16.1117 12.6599 16.1117 13.6498 16.4107C13.7185 15.8672 13.9831 15.3674 14.394 15.0051C14.805 14.6427 15.334 14.4428 15.8818 14.4427H21.1318C21.3307 14.4427 21.5215 14.5217 21.6622 14.6624C21.8028 14.8031 21.8818 14.9938 21.8818 15.1927C21.8818 15.3916 21.8028 15.5824 21.6622 15.7231C21.5215 15.8637 21.3307 15.9427 21.1318 15.9427H21.0043C21.0883 16.1787 21.1308 16.4287 21.1318 16.6927V18.1927C21.1318 19.1873 20.7367 20.1411 20.0335 20.8444C19.3302 21.5476 18.3764 21.9427 17.3818 21.9427C16.3873 21.9427 15.4334 21.5476 14.7302 20.8444C14.0269 20.1411 13.6318 19.1873 13.6318 18.1927V17.9827L13.3168 17.8777C12.5476 17.6215 11.7161 17.6215 10.9468 17.8777L10.6318 17.9827V18.1927C10.6318 19.1873 10.2367 20.1411 9.53349 20.8444C8.83022 21.5476 7.8764 21.9427 6.88184 21.9427C5.88727 21.9427 4.93345 21.5476 4.23019 20.8444C3.52692 20.1411 3.13184 19.1873 3.13184 18.1927V16.6927ZM15.8818 15.9427H18.8818C19.0807 15.9427 19.2715 16.0217 19.4122 16.1624C19.5528 16.3031 19.6318 16.4938 19.6318 16.6927V18.1927C19.6318 18.7895 19.3948 19.3618 18.9728 19.7837C18.5509 20.2057 17.9786 20.4427 17.3818 20.4427C16.7851 20.4427 16.2128 20.2057 15.7908 19.7837C15.3689 19.3618 15.1318 18.7895 15.1318 18.1927V16.6927C15.1318 16.4938 15.2109 16.3031 15.3515 16.1624C15.4922 16.0217 15.6829 15.9427 15.8818 15.9427Z" fill="#5C5454"/>
</svg>
