<svg width="19" height="21" viewBox="0 0 19 21" fill="none" xmlns="http://www.w3.org/2000/svg">
<path id="Vector" d="M3.09006 12.3408V19.5408C3.09006 19.8808 2.97486 20.166 2.74446 20.3964C2.51406 20.6268 2.22926 20.7416 1.89006 20.7408C1.55086 20.74 1.26606 20.6248 1.03566 20.3952C0.805264 20.1656 0.690063 19.8808 0.690063 19.5408V1.54082C0.690063 1.20082 0.805264 0.91602 1.03566 0.68642C1.26606 0.45682 1.55086 0.34162 1.89006 0.34082H10.5001C10.7801 0.34082 11.0301 0.43082 11.2501 0.61082C11.4701 0.79082 11.6101 1.02082 11.6701 1.30082L11.9701 2.74082H17.4901C17.8301 2.74082 18.1153 2.85602 18.3457 3.08642C18.5761 3.31682 18.6909 3.60162 18.6901 3.94082V13.5408C18.6901 13.8808 18.5749 14.166 18.3445 14.3964C18.1141 14.6268 17.8293 14.7416 17.4901 14.7408H11.2801C11.0001 14.7408 10.7501 14.6508 10.5301 14.4708C10.3101 14.2908 10.1701 14.0608 10.1101 13.7808L9.81006 12.3408H3.09006Z" fill="#FAB31B"/>
</svg>
