<svg width="25" height="25" viewBox="0 0 25 25" fill="none" xmlns="http://www.w3.org/2000/svg">
<path d="M22.1904 18.7448C22.1904 18.9437 22.1114 19.1345 21.9708 19.2752C21.8301 19.4158 21.6393 19.4948 21.4404 19.4948H16.3404C16.1734 20.1177 15.8055 20.6681 15.2939 21.0606C14.7822 21.4531 14.1553 21.6659 13.5104 21.6659C12.8655 21.6659 12.2387 21.4531 11.727 21.0606C11.2153 20.6681 10.8475 20.1177 10.6804 19.4948H2.94043C2.74152 19.4948 2.55075 19.4158 2.4101 19.2752C2.26945 19.1345 2.19043 18.9437 2.19043 18.7448C2.19043 18.5459 2.26945 18.3551 2.4101 18.2145C2.55075 18.0738 2.74152 17.9948 2.94043 17.9948H10.6804C10.8475 17.3719 11.2153 16.8216 11.727 16.4291C12.2387 16.0365 12.8655 15.8238 13.5104 15.8238C14.1553 15.8238 14.7822 16.0365 15.2939 16.4291C15.8055 16.8216 16.1734 17.3719 16.3404 17.9948H21.4404C21.6393 17.9948 21.8301 18.0738 21.9708 18.2145C22.1114 18.3551 22.1904 18.5459 22.1904 18.7448ZM22.1904 5.53482C22.1904 5.73374 22.1114 5.9245 21.9708 6.06515C21.8301 6.20581 21.6393 6.28482 21.4404 6.28482H18.9904C18.8234 6.9077 18.4555 7.45807 17.9439 7.85059C17.4322 8.24312 16.8053 8.45588 16.1604 8.45588C15.5155 8.45588 14.8887 8.24312 14.377 7.85059C13.8653 7.45807 13.4975 6.9077 13.3304 6.28482H2.94043C2.84194 6.28482 2.74441 6.26542 2.65342 6.22773C2.56242 6.19004 2.47974 6.1348 2.4101 6.06515C2.34046 5.99551 2.28521 5.91283 2.24752 5.82184C2.20983 5.73084 2.19043 5.63331 2.19043 5.53482C2.19043 5.43633 2.20983 5.3388 2.24752 5.24781C2.28521 5.15682 2.34046 5.07414 2.4101 5.00449C2.47974 4.93485 2.56242 4.8796 2.65342 4.84191C2.74441 4.80422 2.84194 4.78482 2.94043 4.78482H13.3304C13.4975 4.16195 13.8653 3.61158 14.377 3.21905C14.8887 2.82653 15.5155 2.61377 16.1604 2.61377C16.8053 2.61377 17.4322 2.82653 17.9439 3.21905C18.4555 3.61158 18.8234 4.16195 18.9904 4.78482H21.4404C21.5393 4.78348 21.6374 4.80196 21.729 4.83917C21.8206 4.87639 21.9038 4.93158 21.9738 5.0015C22.0437 5.07141 22.0989 5.15462 22.1361 5.24623C22.1733 5.33783 22.1918 5.43596 22.1904 5.53482ZM22.1904 12.1348C22.1918 12.2337 22.1733 12.3318 22.1361 12.4234C22.0989 12.515 22.0437 12.5982 21.9738 12.6682C21.9038 12.7381 21.8206 12.7933 21.729 12.8305C21.6374 12.8677 21.5393 12.8862 21.4404 12.8848H9.74043C9.57339 13.5077 9.20552 14.0581 8.69385 14.4506C8.18219 14.8431 7.55532 15.0559 6.91043 15.0559C6.26554 15.0559 5.63867 14.8431 5.12701 14.4506C4.61534 14.0581 4.24747 13.5077 4.08043 12.8848H2.94043C2.74152 12.8848 2.55075 12.8058 2.4101 12.6652C2.26945 12.5245 2.19043 12.3337 2.19043 12.1348C2.19043 11.9359 2.26945 11.7451 2.4101 11.6045C2.55075 11.4638 2.74152 11.3848 2.94043 11.3848H4.08043C4.24747 10.7619 4.61534 10.2116 5.12701 9.81905C5.63867 9.42653 6.26554 9.21377 6.91043 9.21377C7.55532 9.21377 8.18219 9.42653 8.69385 9.81905C9.20552 10.2116 9.57339 10.7619 9.74043 11.3848H21.4404C21.6393 11.3848 21.8301 11.4638 21.9708 11.6045C22.1114 11.7451 22.1904 11.9359 22.1904 12.1348Z" fill="#5C5454"/>
</svg>
