<svg width="29" height="29" viewBox="0 0 29 29" fill="none" xmlns="http://www.w3.org/2000/svg">
<rect x="0.223633" y="0.501953" width="28" height="28" rx="14" fill="#E2EBF2"/>
<path d="M9.77919 14.5018C9.77919 15.1206 9.59189 15.7141 9.25849 16.1517C8.92509 16.5893 8.47291 16.8351 8.00141 16.8351C7.52991 16.8351 7.07773 16.5893 6.74433 16.1517C6.41093 15.7141 6.22363 15.1206 6.22363 14.5018C6.22363 13.883 6.41093 13.2895 6.74433 12.8519C7.07773 12.4143 7.52991 12.1685 8.00141 12.1685C8.47291 12.1685 8.92509 12.4143 9.25849 12.8519C9.59189 13.2895 9.77919 13.883 9.77919 14.5018ZM16.0014 14.5018C16.0014 15.1206 15.8141 15.7141 15.4807 16.1517C15.1473 16.5893 14.6951 16.8351 14.2236 16.8351C13.7521 16.8351 13.3 16.5893 12.9666 16.1517C12.6332 15.7141 12.4459 15.1206 12.4459 14.5018C12.4459 13.883 12.6332 13.2895 12.9666 12.8519C13.3 12.4143 13.7521 12.1685 14.2236 12.1685C14.6951 12.1685 15.1473 12.4143 15.4807 12.8519C15.8141 13.2895 16.0014 13.883 16.0014 14.5018ZM22.2236 14.5018C22.2236 15.1206 22.0363 15.7141 21.7029 16.1517C21.3695 16.5893 20.9174 16.8351 20.4459 16.8351C19.9744 16.8351 19.5222 16.5893 19.1888 16.1517C18.8554 15.7141 18.6681 15.1206 18.6681 14.5018C18.6681 13.883 18.8554 13.2895 19.1888 12.8519C19.5222 12.4143 19.9744 12.1685 20.4459 12.1685C20.9174 12.1685 21.3695 12.4143 21.7029 12.8519C22.0363 13.2895 22.2236 13.883 22.2236 14.5018Z" fill="#1E1E1E"/>
</svg>
