<svg width="25" height="25" viewBox="0 0 25 25" fill="none" xmlns="http://www.w3.org/2000/svg">
<path d="M19.9069 23.5427L17.2569 20.9427H6.60693C5.0736 20.9427 3.7736 20.4093 2.70693 19.3427C1.64027 18.276 1.10693 16.976 1.10693 15.4427C1.10693 14.1627 1.5036 13.0227 2.29693 12.0227C3.09027 11.016 4.11027 10.3727 5.35693 10.0927C5.41027 9.95934 5.46027 9.82934 5.50693 9.70268C5.5736 9.57601 5.6236 9.43934 5.65693 9.29268L1.50693 5.14268L2.90693 3.74268L21.3069 22.1427M6.60693 18.9427H15.2569L7.20693 10.8927C7.1736 11.0793 7.15027 11.2627 7.13693 11.4427C7.11693 11.596 7.10693 11.7627 7.10693 11.9427H6.60693C5.64027 11.9427 4.81693 12.286 4.13693 12.9727C3.45027 13.6527 3.10693 14.476 3.10693 15.4427C3.10693 16.4093 3.45027 17.2427 4.13693 17.9427C4.81693 18.6093 5.64027 18.9427 6.60693 18.9427ZM21.7069 19.6927L20.2569 18.2927C20.5436 18.0593 20.7569 17.7893 20.8969 17.4827C21.0369 17.176 21.1069 16.8293 21.1069 16.4427C21.1069 15.7427 20.8636 15.1527 20.3769 14.6727C19.8969 14.186 19.3069 13.9427 18.6069 13.9427H17.1069V11.9427C17.1069 10.5627 16.6203 9.38268 15.6469 8.40268C14.6736 7.42934 13.4936 6.94268 12.1069 6.94268C11.6603 6.94268 11.2269 6.99601 10.8069 7.10268C10.3869 7.21601 9.98693 7.38934 9.60693 7.62268L8.15693 6.17268C8.7436 5.77268 9.3636 5.46601 10.0169 5.25268C10.6769 5.04601 11.3736 4.94268 12.1069 4.94268C14.0603 4.94268 15.7136 5.62268 17.0669 6.98268C18.4269 8.33601 19.1069 9.98934 19.1069 11.9427C20.2603 12.076 21.2136 12.576 21.9669 13.4427C22.7269 14.296 23.1069 15.296 23.1069 16.4427C23.1069 17.1093 22.9836 17.7127 22.7369 18.2527C22.4836 18.8127 22.1403 19.2927 21.7069 19.6927Z" fill="#5C5454"/>
</svg>
