<svg width="25" height="25" viewBox="0 0 25 25" fill="none" xmlns="http://www.w3.org/2000/svg">
<path d="M9.2971 5.26396C9.2971 4.85796 9.4491 4.51696 9.6531 4.37996C9.8031 4.27996 10.3661 4.04396 11.8431 4.79596C12.0793 4.91582 12.3535 4.93704 12.6054 4.85497C12.8573 4.77289 13.0663 4.59421 13.1866 4.35817C13.3068 4.12213 13.3285 3.84801 13.2469 3.59599C13.1652 3.34397 12.9869 3.13464 12.7511 3.01396C11.0281 2.13696 9.5911 2.01396 8.5411 2.71796C7.5451 3.38496 7.2971 4.53796 7.2971 5.26396H5.2971C4.7451 5.26396 4.2891 5.71396 4.3781 6.25996C4.47431 6.84294 4.65205 7.4095 4.9061 7.94296C5.3081 8.79296 5.8971 9.56296 6.6401 10.213C7.40446 10.8747 8.28459 11.3893 9.2361 11.731C9.8961 11.971 10.5901 12.131 11.2971 12.209V15.264H13.2971V12.209C13.9557 12.1363 14.6043 11.9911 15.2311 11.776C15.1635 12.0308 15.0462 12.2699 14.8859 12.4792C14.7256 12.6886 14.5255 12.8642 14.2971 12.996V15.138C16.0221 14.694 17.2971 13.128 17.2971 11.264C17.2973 11.1043 17.2592 10.9469 17.1861 10.805C17.4561 10.6223 17.7121 10.4253 17.9541 10.214C18.6821 9.58423 19.2724 8.81113 19.6881 7.94296C19.9409 7.40902 20.1186 6.84264 20.2161 6.25996C20.3061 5.71396 19.8491 5.26396 19.2971 5.26396H9.2971Z" fill="white"/>
<path d="M9.79712 13.2642H10.2971V15.2642H9.79712C9.66451 15.2642 9.53733 15.3168 9.44357 15.4106C9.3498 15.5044 9.29712 15.6316 9.29712 15.7642C9.29712 15.8968 9.3498 16.0239 9.44357 16.1177C9.53733 16.2115 9.66451 16.2642 9.79712 16.2642H14.1351C14.6055 16.2638 15.0631 16.4169 15.4386 16.7001C15.8141 16.9833 16.087 17.3813 16.2159 17.8336C16.3448 18.2859 16.3227 18.7679 16.1529 19.2066C15.9832 19.6452 15.675 20.0165 15.2751 20.2642H17.2971V22.2642H7.29712V20.2642H11.2971C11.297 20.0575 11.361 19.856 11.4801 19.6872C11.6077 19.5065 11.7917 19.3732 12.0031 19.3082L14.1861 18.5802C14.2228 18.5682 14.254 18.5435 14.2742 18.5105C14.2943 18.4775 14.3019 18.4385 14.2958 18.4003C14.2896 18.3622 14.2701 18.3276 14.2406 18.3026C14.2111 18.2776 14.1737 18.264 14.1351 18.2642H9.79712C9.13408 18.2642 8.49819 18.0008 8.02935 17.5319C7.56051 17.0631 7.29712 16.4272 7.29712 15.7642C7.29712 15.1011 7.56051 14.4652 8.02935 13.9964C8.49819 13.5276 9.13408 13.2642 9.79712 13.2642Z" fill="white"/>
</svg>
