<svg width="25" height="25" viewBox="0 0 25 25" fill="none" xmlns="http://www.w3.org/2000/svg">
<path fill-rule="evenodd" clip-rule="evenodd" d="M12.2971 0.26416C13.873 0.264153 15.4334 0.574536 16.8893 1.17759C18.3452 1.78064 19.6681 2.66455 20.7824 3.77885C21.8967 4.89315 22.7806 6.21602 23.3837 7.67193C23.9867 9.12784 24.2971 10.6883 24.2971 12.2641C24.2971 18.8916 18.9245 24.2642 12.2971 24.2642C5.66972 24.2642 0.297119 18.8916 0.297119 12.2641C0.297119 5.63676 5.66972 0.26416 12.2971 0.26416ZM13.4971 13.4642H11.0971C8.12627 13.4642 5.57573 15.2634 4.47565 17.8319C6.21625 20.2726 9.07082 21.8641 12.2971 21.8641C15.5234 21.8641 18.3779 20.2726 20.1186 17.8317C19.0185 15.2634 16.468 13.4642 13.4971 13.4642ZM12.2971 3.86416C10.3089 3.86416 8.69709 5.47594 8.69709 7.46416C8.69709 9.45237 10.3089 11.0642 12.2971 11.0642C14.2853 11.0642 15.8971 9.45237 15.8971 7.46416C15.8971 5.47594 14.2854 3.86416 12.2971 3.86416Z" fill="white"/>
</svg>
