<svg width="14" height="20" viewBox="0 0 14 20" fill="none" xmlns="http://www.w3.org/2000/svg">
<path d="M0.690063 4.82256C0.690063 3.70256 0.690063 3.14256 0.908063 2.71456C1.09981 2.33825 1.40576 2.0323 1.78206 1.84056C2.21006 1.62256 2.77006 1.62256 3.89006 1.62256H9.49006C10.6101 1.62256 11.1701 1.62256 11.5981 1.84056C11.9744 2.0323 12.2803 2.33825 12.4721 2.71456C12.6901 3.14256 12.6901 3.70256 12.6901 4.82256V18.1276C12.6901 18.6136 12.6901 18.8566 12.5891 18.9896C12.5454 19.0474 12.4897 19.0951 12.4258 19.1293C12.362 19.1634 12.2914 19.1833 12.2191 19.1876C12.0521 19.1976 11.8501 19.0626 11.4461 18.7936L6.69006 15.6226L1.93406 18.7926C1.53006 19.0626 1.32806 19.1976 1.16006 19.1876C1.0879 19.1832 1.01754 19.1632 0.953836 19.1291C0.890132 19.0949 0.834598 19.0473 0.791063 18.9896C0.690063 18.8566 0.690063 18.6136 0.690063 18.1276V4.82256Z" fill="#FAB31B" stroke="#FAB31B" stroke-width="1.5" stroke-linecap="round" stroke-linejoin="round"/>
</svg>
