<svg width="25" height="26" viewBox="0 0 25 26" fill="none" xmlns="http://www.w3.org/2000/svg">
<path d="M16.6692 19.936C17.3958 19.936 17.9997 19.7223 18.481 19.2948C18.9622 18.8674 19.2131 18.2263 19.2336 17.3715C19.255 16.6449 19.0148 16.0358 18.513 15.5443C18.0112 15.0528 17.3966 14.807 16.6692 14.807C15.9417 14.807 15.3326 15.0528 14.842 15.5443C14.3513 16.0358 14.1055 16.6449 14.1047 17.3715C14.1038 18.0981 14.3496 18.7071 14.842 19.1987C15.3343 19.6902 15.9434 19.936 16.6692 19.936ZM16.6692 22.5004C15.2587 22.5004 14.0512 21.9982 13.0468 20.9938C12.0424 19.9894 11.5402 18.7819 11.5402 17.3715C11.5402 15.961 12.0424 14.7536 13.0468 13.7491C14.0512 12.7447 15.2587 12.2425 16.6692 12.2425C18.0796 12.2425 19.2871 12.7447 20.2915 13.7491C21.2959 14.7536 21.7981 15.961 21.7981 17.3715C21.7981 17.863 21.7396 18.328 21.6225 18.7666C21.5053 19.2051 21.3288 19.6163 21.0929 20.0001L24.3626 23.2698L22.5675 25.0649L19.2978 21.7952C18.9131 22.0303 18.5019 22.2068 18.0642 22.3248C17.6266 22.4427 17.1615 22.5013 16.6692 22.5004ZM0 24.0712V3.33092L7.69346 0.702323L15.3869 3.39503L23.0804 0.413818V13.108C22.3324 12.0181 21.3976 11.174 20.2761 10.5756C19.1546 9.97721 17.9523 9.67802 16.6692 9.67802C16.2417 9.67802 15.8143 9.71563 15.3869 9.79086C14.9595 9.86608 14.5321 9.97807 14.1047 10.1268V5.63896L8.9757 3.84382V20.6091L0 24.0712Z" fill="#173956"/>
</svg>
