<svg width="25" height="25" viewBox="0 0 25 25" fill="none" xmlns="http://www.w3.org/2000/svg">
<path d="M2.69712 24.2642C2.03712 24.2642 1.47232 24.0294 1.00272 23.5598C0.533119 23.0902 0.297919 22.525 0.297119 21.8642V7.46416C0.297119 6.80416 0.532319 6.23936 1.00272 5.76976C1.47312 5.30016 2.03792 5.06496 2.69712 5.06416H7.49712V2.66416C7.49712 2.00416 7.73232 1.43936 8.20272 0.96976C8.67312 0.50016 9.23792 0.26496 9.89712 0.26416H14.6971C15.3571 0.26416 15.9223 0.49936 16.3927 0.96976C16.8631 1.44016 17.0979 2.00496 17.0971 2.66416V5.06416H21.8971C22.5571 5.06416 23.1223 5.29936 23.5927 5.76976C24.0631 6.24016 24.2979 6.80496 24.2971 7.46416V21.8642C24.2971 22.5242 24.0623 23.0894 23.5927 23.5598C23.1231 24.0302 22.5579 24.265 21.8971 24.2642H2.69712ZM9.89712 5.06416H14.6971V2.66416H9.89712V5.06416ZM11.0971 15.8642V18.2642C11.0971 18.6042 11.2123 18.8894 11.4427 19.1198C11.6731 19.3502 11.9579 19.465 12.2971 19.4642C12.6363 19.4634 12.9215 19.3482 13.1527 19.1186C13.3839 18.889 13.4987 18.6042 13.4971 18.2642V15.8642H15.8971C16.2371 15.8642 16.5223 15.749 16.7527 15.5186C16.9831 15.2882 17.0979 15.0034 17.0971 14.6642C17.0963 14.325 16.9811 14.0402 16.7515 13.8098C16.5219 13.5794 16.2371 13.4642 15.8971 13.4642H13.4971V11.0642C13.4971 10.7242 13.3819 10.4394 13.1515 10.2098C12.9211 9.98016 12.6363 9.86496 12.2971 9.86416C11.9579 9.86336 11.6731 9.97856 11.4427 10.2098C11.2123 10.441 11.0971 10.7258 11.0971 11.0642V13.4642H8.69712C8.35712 13.4642 8.07232 13.5794 7.84272 13.8098C7.61312 14.0402 7.49792 14.325 7.49712 14.6642C7.49632 15.0034 7.61152 15.2886 7.84272 15.5198C8.07392 15.751 8.35872 15.8658 8.69712 15.8642H11.0971Z" fill="white"/>
</svg>
