<svg width="25" height="25" viewBox="0 0 25 25" fill="none" xmlns="http://www.w3.org/2000/svg">
<path d="M14.8992 14.3443L16.5792 11.4345C16.6872 11.2541 16.6392 11.0257 16.4832 10.8934L14.7072 9.49863C14.7432 9.2341 14.7672 8.95755 14.7672 8.68099C14.7672 8.40444 14.7432 8.12789 14.7072 7.85134L16.4832 6.45655C16.6392 6.32428 16.6872 6.09582 16.5792 5.91546L14.8992 3.00564C14.7912 2.82528 14.5752 2.75314 14.3832 2.82528L12.2952 3.66697C11.8632 3.33029 11.3952 3.05374 10.8793 2.83731L10.5673 0.612858C10.5471 0.51561 10.4946 0.428115 10.4183 0.364748C10.3419 0.301381 10.2464 0.265909 10.1473 0.26416H6.7873C6.5833 0.26416 6.4033 0.420473 6.3673 0.624882L6.0553 2.84933C5.55131 3.06576 5.07131 3.34232 4.63932 3.67899L2.55134 2.83731C2.35934 2.76516 2.14335 2.83731 2.03535 3.01767L0.355365 5.92749C0.247366 6.10785 0.295366 6.3363 0.451364 6.46857L2.22734 7.86336C2.19134 8.12789 2.16735 8.40444 2.16735 8.68099C2.16735 8.95755 2.19134 9.2341 2.22734 9.51065L0.451364 10.9054C0.295366 11.0377 0.247366 11.2662 0.355365 11.4465L2.03535 14.3563C2.14335 14.5367 2.35934 14.6088 2.55134 14.5367L4.63932 13.695C5.07131 14.0317 5.53931 14.3082 6.0553 14.5247L6.3673 16.7491C6.4033 16.9415 6.5833 17.0978 6.7873 17.0978H10.1473C10.3513 17.0978 10.5313 16.9415 10.5673 16.7371L10.8793 14.5127C11.3832 14.2962 11.8632 14.0197 12.2952 13.683L14.3832 14.5247C14.5752 14.5968 14.7912 14.5247 14.8992 14.3443ZM8.46728 11.0858C7.14729 11.0858 6.0673 10.0036 6.0673 8.68099C6.0673 7.35835 7.14729 6.27618 8.46728 6.27618C9.78726 6.27618 10.8673 7.35835 10.8673 8.68099C10.8673 10.0036 9.78726 11.0858 8.46728 11.0858ZM24.1991 20.3082L23.0471 19.4185C23.0711 19.2501 23.0951 19.0698 23.0951 18.8894C23.0951 18.7091 23.0831 18.5287 23.0471 18.3604L24.1871 17.4706C24.2831 17.3864 24.3191 17.2421 24.2471 17.1219L23.1671 15.2581C23.1071 15.1379 22.9631 15.1018 22.8311 15.1379L21.4991 15.679C21.2231 15.4626 20.9231 15.2822 20.5871 15.1499L20.3832 13.7311C20.3784 13.6668 20.35 13.6066 20.3034 13.5622C20.2568 13.5177 20.1954 13.4922 20.1312 13.4906H17.9832C17.8512 13.4906 17.7312 13.5868 17.7192 13.7191L17.5152 15.1379C17.1912 15.2822 16.8792 15.4505 16.6032 15.667L15.2712 15.1259C15.2101 15.1028 15.1427 15.1023 15.0812 15.1243C15.0197 15.1463 14.968 15.1895 14.9352 15.2461L13.8552 17.1099C13.7952 17.2301 13.8072 17.3744 13.9152 17.4585L15.0552 18.3483C15.0066 18.6994 15.0066 19.0554 15.0552 19.4064L13.9152 20.2962C13.8192 20.3804 13.7832 20.5247 13.8552 20.6449L14.9352 22.5086C14.9952 22.6289 15.1392 22.665 15.2712 22.6289L16.6032 22.0878C16.8792 22.3042 17.1792 22.4846 17.5152 22.6169L17.7192 24.0357C17.7432 24.168 17.8512 24.2642 17.9832 24.2642H20.1312C20.2632 24.2642 20.3832 24.168 20.3952 24.0357L20.5991 22.6169C20.9231 22.4726 21.2351 22.3042 21.4991 22.0878L22.8431 22.6289C22.9631 22.677 23.1071 22.6289 23.1791 22.5086L24.2591 20.6449C24.3311 20.5367 24.2951 20.3924 24.1991 20.3082ZM19.0512 20.5006C18.8383 20.5006 18.6276 20.4585 18.431 20.3768C18.2345 20.2951 18.0558 20.1754 17.9054 20.0246C17.755 19.8738 17.6357 19.6947 17.5543 19.4977C17.4729 19.3006 17.4311 19.0894 17.4312 18.8762C17.4313 18.6629 17.4733 18.4518 17.5548 18.2548C17.6363 18.0578 17.7557 17.8789 17.9063 17.7281C18.0568 17.5774 18.2355 17.4578 18.4321 17.3763C18.6288 17.2948 18.8395 17.2529 19.0524 17.2529C19.4822 17.2531 19.8943 17.4243 20.1981 17.729C20.5019 18.0336 20.6725 18.4467 20.6723 18.8774C20.6722 19.3081 20.5013 19.721 20.1973 20.0254C19.8932 20.3299 19.481 20.5008 19.0512 20.5006Z" fill="white"/>
</svg>
