<svg width="25" height="25" viewBox="0 0 25 25" fill="none" xmlns="http://www.w3.org/2000/svg">
<path d="M5.35213 7.66104C5.2115 6.59604 4.97338 4.71917 5.13088 3.68604C5.28838 2.65292 5.70088 1.70042 6.5615 1.32354C7.30588 0.999166 8.234 1.34229 8.77025 2.14479C9.07588 2.60229 9.25025 3.16667 9.39838 3.72542C9.6515 4.68542 9.89338 5.99792 10.0153 6.98604" stroke="#00796B" stroke-width="0.375" stroke-miterlimit="10"/>
<path d="M6.05519 22.1343L1.52332 20.2462L2.57519 15.6074L2.35019 5.03619L13.8177 3.68994V4.69119L16.5458 5.03619L6.05519 22.1343Z" fill="#26A69A"/>
<path d="M17.519 20.4093L6.05337 22.1455L5.07837 16.0743V6.77051L16.5459 5.03613V14.338L17.519 20.4093Z" fill="#61DE9F"/>
<path d="M5.07834 6.77061V5.72436L2.35022 5.03623L13.8402 3.76123L14.2077 4.57498L16.5458 5.03623L5.07834 6.77061Z" fill="#263238"/>
<path d="M1.52332 20.2461C1.60207 20.2461 4.23832 18.1555 4.23832 18.1555L6.05332 22.1455L5.66332 15.7836L5.07269 6.77051L4.30581 16.5111L1.52332 20.2461Z" fill="#00796B"/>
<path d="M13.8065 3.88121L14.084 4.52246L14.1197 4.60684L14.2078 4.62934L15.6047 4.98746L5.26592 6.55309V5.57809L5.12342 5.54246L3.38342 5.10371L13.8065 3.88121ZM13.9247 3.67871L2.35217 5.03621L5.0803 5.72434V6.77246L16.5459 5.03621L14.2565 4.44746L13.9247 3.67871Z" fill="#26A69A"/>
<path d="M8.5378 7.47365C8.39718 6.41052 6.9328 2.32677 9.73593 1.80552C11.8547 1.41177 12.7903 5.9249 12.9141 6.9149" stroke="#61DE9F" stroke-width="0.375" stroke-miterlimit="10"/>
<path d="M8.88654 7.76965C8.72341 7.22027 8.55279 6.11027 8.54529 6.06152L9.10029 5.97715C9.10216 5.9884 9.30091 7.1209 9.51841 7.65152L8.88654 7.76965ZM13.259 7.10402C13.0959 6.55465 12.9253 5.44465 12.9178 5.3959L13.4728 5.31152C13.4747 5.32277 13.7053 6.47402 13.8984 6.98777L13.259 7.10402ZM9.07966 21.6878L10.6547 18.9596L9.90279 11.6865L16.1972 10.4621L12.8222 21.129L9.07966 21.6878Z" fill="#26A69A"/>
<path d="M13.9977 10.9612C13.9977 10.9612 13.289 7.19804 15.6496 7.44742C16.934 7.58242 16.8815 10.5693 16.8815 10.5693" stroke="#D7578A" stroke-width="0.375" stroke-miterlimit="10"/>
<path d="M14.2584 23.5125L10.7765 22.0556L11.5865 18.4894L11.414 10.3631L20.2265 9.32812V10.0988L22.3227 10.3631L14.2584 23.5125Z" fill="#D7578A"/>
<path d="M23.0709 22.179L14.2584 23.514L13.5103 18.8472V11.6978L22.3228 10.3628V17.514L23.0709 22.179Z" fill="#FF9F9F"/>
<path d="M13.5102 11.6981L12.8052 11.1581L11.4139 10.3631L20.2264 9.32812L21.0271 9.8325L22.3227 10.3631L13.5102 11.6981Z" fill="#263238"/>
<path d="M20.1927 9.52125L21.7021 10.2656L13.5496 11.4994L11.9577 10.4869L20.1927 9.52125ZM20.2264 9.32812L11.4139 10.3631L13.5102 11.6981L22.3227 10.3631L20.2264 9.32812Z" fill="#D7578A"/>
<path d="M16.4896 12.416C16.364 11.996 16.2346 11.1429 16.229 11.1073L16.724 11.0435C16.7259 11.0529 16.8515 11.9117 16.9678 12.3073L16.4896 12.416ZM19.844 11.9004C19.7184 11.4804 19.589 10.6273 19.5834 10.5917L20.0728 10.5298C20.0746 10.5392 20.1759 11.4242 20.2921 11.8198L19.844 11.9004Z" fill="#D7578A"/>
<path d="M16.2121 12.4349C16.1034 11.6174 14.9896 8.17112 17.0896 7.88049C18.7303 7.65362 19.4371 11.0474 19.5328 11.8067" stroke="#FF9F9F" stroke-width="0.375" stroke-miterlimit="10"/>
<path d="M10.7765 22.0555L12.5559 20.548L14.2584 23.5143L13.514 18.8755L13.5215 11.7205L13.3115 11.6343L12.6477 18.9074L10.7765 22.0555Z" fill="#AB2C5E"/>
</svg>
