<svg width="45" height="82" viewBox="0 0 45 82" fill="none" xmlns="http://www.w3.org/2000/svg">
<path d="M20.79 14.7741C21.2934 14.7741 21.7783 14.8396 22.2448 14.9705C22.7113 15.1015 23.1492 15.2856 23.5584 15.523C23.9676 15.7603 24.34 16.0488 24.6755 16.3885C25.0111 16.7281 25.2975 17.0984 25.5349 17.4995C25.7722 17.9005 25.9584 18.3383 26.0934 18.813C26.2285 19.2877 26.294 19.7747 26.2899 20.2739C26.2899 20.7773 26.2244 21.2622 26.0934 21.7287C25.9625 22.1952 25.7783 22.633 25.541 23.0422C25.3037 23.4515 25.0152 23.8238 24.6755 24.1594C24.3359 24.495 23.9655 24.7814 23.5645 25.0187C23.1635 25.2561 22.7256 25.4423 22.2509 25.5773C21.7762 25.7124 21.2893 25.7778 20.79 25.7737C20.2867 25.7737 19.8018 25.7083 19.3353 25.5773C18.8688 25.4464 18.4309 25.2622 18.0217 25.0249C17.6125 24.7875 17.2401 24.499 16.9046 24.1594C16.569 23.8198 16.2826 23.4494 16.0452 23.0484C15.8079 22.6474 15.6217 22.2095 15.4866 21.7348C15.3516 21.2601 15.2861 20.7732 15.2902 20.2739C15.2902 19.7706 15.3557 19.2857 15.4866 18.8192C15.6176 18.3527 15.8017 17.9148 16.0391 17.5056C16.2764 17.0964 16.5649 16.724 16.9046 16.3885C17.2442 16.0529 17.6145 15.7664 18.0156 15.5291C18.4166 15.2918 18.8545 15.1056 19.3291 14.9705C19.8038 14.8355 20.2908 14.77 20.79 14.7741ZM20.79 24.9881C21.2238 24.9881 21.6412 24.9328 22.0422 24.8223C22.4433 24.7118 22.8177 24.5522 23.1655 24.3435C23.5133 24.1348 23.8325 23.8893 24.1231 23.607C24.4136 23.3246 24.6591 23.0075 24.8597 22.6555C25.0602 22.3036 25.2177 21.9271 25.3323 21.5261C25.4469 21.1251 25.5042 20.7077 25.5042 20.2739C25.5042 19.8402 25.4489 19.4228 25.3384 19.0217C25.228 18.6207 25.0684 18.2463 24.8597 17.8984C24.651 17.5506 24.4054 17.2314 24.1231 16.9409C23.8407 16.6503 23.5236 16.4048 23.1717 16.2043C22.8197 16.0038 22.4433 15.8462 22.0422 15.7317C21.6412 15.6171 21.2238 15.5598 20.79 15.5598C20.3563 15.5598 19.9389 15.615 19.5378 15.7255C19.1368 15.836 18.7624 15.9956 18.4146 16.2043C18.0667 16.413 17.7475 16.6585 17.457 16.9409C17.1665 17.2232 16.9209 17.5404 16.7204 17.8923C16.5199 18.2442 16.3624 18.6207 16.2478 19.0217C16.1332 19.4228 16.0759 19.8402 16.0759 20.2739C16.0759 20.7077 16.1312 21.1251 16.2416 21.5261C16.3521 21.9271 16.5117 22.3016 16.7204 22.6494C16.9291 22.9972 17.1746 23.3164 17.457 23.607C17.7394 23.8975 18.0565 24.143 18.4084 24.3435C18.7603 24.5441 19.1368 24.7016 19.5378 24.8162C19.9389 24.9308 20.3563 24.9881 20.79 24.9881ZM20.79 17.9169C21.1133 17.9169 21.4182 17.9782 21.7046 18.101C21.9911 18.2238 22.2407 18.3936 22.4535 18.6105C22.6663 18.8274 22.8341 19.077 22.9568 19.3593C23.0796 19.6417 23.143 19.9466 23.1471 20.2739C23.1471 20.5972 23.0857 20.9021 22.963 21.1885C22.8402 21.475 22.6704 21.7246 22.4535 21.9374C22.2366 22.1502 21.987 22.3179 21.7046 22.4407C21.4223 22.5635 21.1174 22.6269 20.79 22.631C20.4668 22.631 20.1619 22.5696 19.8754 22.4468C19.589 22.3241 19.3394 22.1543 19.1266 21.9374C18.9138 21.7205 18.746 21.4709 18.6233 21.1885C18.5005 20.9062 18.4371 20.6013 18.433 20.2739C18.433 19.9506 18.4944 19.6458 18.6171 19.3593C18.7399 19.0729 18.9097 18.8233 19.1266 18.6105C19.3435 18.3977 19.5931 18.2299 19.8754 18.1071C20.1578 17.9844 20.4627 17.921 20.79 17.9169Z" fill="#173956"/>
<path d="M21.1983 30.8819C20.8863 30.8819 20.6223 30.7739 20.4063 30.5579C20.1903 30.3419 20.0823 30.0779 20.0823 29.7659C20.0823 29.4539 20.1903 29.1899 20.4063 28.9739C20.6223 28.7579 20.8863 28.6499 21.1983 28.6499C21.4983 28.6499 21.7503 28.7579 21.9543 28.9739C22.1703 29.1899 22.2783 29.4539 22.2783 29.7659C22.2783 30.0779 22.1703 30.3419 21.9543 30.5579C21.7503 30.7739 21.4983 30.8819 21.1983 30.8819Z" fill="#282828"/>
<path d="M21.1983 39.8819C20.8863 39.8819 20.6223 39.7739 20.4063 39.5579C20.1903 39.3419 20.0823 39.0779 20.0823 38.7659C20.0823 38.4539 20.1903 38.1899 20.4063 37.9739C20.6223 37.7579 20.8863 37.6499 21.1983 37.6499C21.4983 37.6499 21.7503 37.7579 21.9543 37.9739C22.1703 38.1899 22.2783 38.4539 22.2783 38.7659C22.2783 39.0779 22.1703 39.3419 21.9543 39.5579C21.7503 39.7739 21.4983 39.8819 21.1983 39.8819Z" fill="#282828"/>
<path d="M21.1983 48.8819C20.8863 48.8819 20.6223 48.7739 20.4063 48.5579C20.1903 48.3419 20.0823 48.0779 20.0823 47.7659C20.0823 47.4539 20.1903 47.1899 20.4063 46.9739C20.6223 46.7579 20.8863 46.6499 21.1983 46.6499C21.4983 46.6499 21.7503 46.7579 21.9543 46.9739C22.1703 47.1899 22.2783 47.4539 22.2783 47.7659C22.2783 48.0779 22.1703 48.3419 21.9543 48.5579C21.7503 48.7739 21.4983 48.8819 21.1983 48.8819Z" fill="#282828"/>
<path d="M22.2904 69.9905C22.1348 69.9905 21.9793 69.9627 21.8237 69.9072C21.6681 69.8516 21.5293 69.7683 21.407 69.6572C20.6848 68.9905 20.0459 68.3405 19.4904 67.7072C18.9348 67.0738 18.471 66.4601 18.099 65.8658C17.727 65.2716 17.4437 64.6994 17.249 64.1492C17.0544 63.599 16.957 63.0738 16.957 62.5738C16.957 60.9072 17.4933 59.5794 18.5657 58.5905C19.6381 57.6016 20.8797 57.1072 22.2904 57.1072C23.701 57.1072 24.9428 57.6016 26.0157 58.5905C27.0886 59.5794 27.6246 60.9072 27.6237 62.5738C27.6237 63.0738 27.5266 63.599 27.3324 64.1492C27.1381 64.6994 26.8548 65.2716 26.4824 65.8658C26.1099 66.4601 25.6459 67.0738 25.0904 67.7072C24.5348 68.3405 23.8959 68.9905 23.1737 69.6572C23.0515 69.7683 22.9126 69.8516 22.757 69.9072C22.6015 69.9627 22.4459 69.9905 22.2904 69.9905ZM22.2904 63.7738C22.657 63.7738 22.971 63.6434 23.2324 63.3825C23.4937 63.1216 23.6241 62.8076 23.6237 62.4405C23.6233 62.0734 23.4928 61.7596 23.2324 61.4992C22.9719 61.2387 22.6579 61.1081 22.2904 61.1072C21.9228 61.1063 21.609 61.237 21.349 61.4992C21.089 61.7614 20.9584 62.0752 20.957 62.4405C20.9557 62.8058 21.0864 63.1198 21.349 63.3825C21.6117 63.6452 21.9255 63.7756 22.2904 63.7738Z" fill="#CA3218"/>
</svg>
