<svg width="21" height="20" viewBox="0 0 21 20" fill="none" xmlns="http://www.w3.org/2000/svg">
<path id="Vector" d="M10.7496 16.1671L5.87308 19.1047C5.65766 19.2418 5.43244 19.3006 5.19743 19.281C4.96242 19.2614 4.75678 19.1831 4.58052 19.046C4.40427 18.9089 4.26718 18.7377 4.16926 18.5325C4.07133 18.3272 4.05175 18.0969 4.1105 17.8416L5.40306 12.2894L1.08474 8.55862C0.888894 8.38236 0.766688 8.18143 0.718119 7.95581C0.66955 7.7302 0.684042 7.51008 0.761596 7.29543C0.839149 7.08079 0.956655 6.90453 1.11411 6.76666C1.27157 6.62879 1.487 6.54066 1.76039 6.50227L7.45941 6.00287L9.66264 0.773881C9.76056 0.53887 9.91253 0.362611 10.1186 0.245106C10.3246 0.1276 10.5349 0.0688477 10.7496 0.0688477C10.9642 0.0688477 11.1745 0.1276 11.3806 0.245106C11.5866 0.362611 11.7386 0.53887 11.8365 0.773881L14.0397 6.00287L19.7387 6.50227C20.0129 6.54144 20.2283 6.62957 20.385 6.76666C20.5417 6.90375 20.6592 7.08001 20.7375 7.29543C20.8159 7.51086 20.8307 7.73138 20.7822 7.95699C20.7336 8.1826 20.611 8.38314 20.4144 8.55862L16.0961 12.2894L17.3886 17.8416C17.4474 18.0961 17.4278 18.3265 17.3299 18.5325C17.2319 18.7385 17.0949 18.9097 16.9186 19.046C16.7423 19.1823 16.5367 19.2606 16.3017 19.281C16.0667 19.3014 15.8415 19.2426 15.626 19.1047L10.7496 16.1671Z" fill="#FAB31B"/>
</svg>
