<svg width="25" height="25" viewBox="0 0 25 25" fill="none" xmlns="http://www.w3.org/2000/svg">
<path d="M3.78613 18.9429C3.23613 18.9429 2.76547 18.7472 2.37413 18.3559C1.9828 17.9645 1.7868 17.4935 1.78613 16.9429C1.78547 16.3922 1.98147 15.9215 2.37413 15.5309C2.7668 15.1402 3.23747 14.9442 3.78613 14.9429H4.04913C4.1238 14.9429 4.2028 14.9595 4.28613 14.9929L8.83613 10.4429C8.8028 10.3595 8.78613 10.2802 8.78613 10.2049V9.94287C8.78613 9.39287 8.98213 8.92221 9.37414 8.53087C9.76614 8.13954 10.2368 7.94354 10.7861 7.94287C11.3355 7.94221 11.8065 8.13821 12.1991 8.53087C12.5918 8.92354 12.7875 9.39421 12.7861 9.94287C12.7861 9.97621 12.7695 10.1429 12.7361 10.4429L15.2861 12.9929C15.3695 12.9595 15.4488 12.9429 15.5241 12.9429H16.0491C16.1238 12.9429 16.2028 12.9595 16.2861 12.9929L19.8361 9.44287C19.8028 9.35954 19.7861 9.28021 19.7861 9.20487V8.94287C19.7861 8.39287 19.9821 7.92221 20.3741 7.53087C20.7661 7.13954 21.2368 6.94354 21.7861 6.94287C22.3355 6.94221 22.8065 7.13821 23.1991 7.53087C23.5918 7.92354 23.7875 8.39421 23.7861 8.94287C23.7848 9.49154 23.5891 9.96254 23.1991 10.3559C22.8091 10.7492 22.3381 10.9449 21.7861 10.9429H21.5241C21.4488 10.9429 21.3695 10.9262 21.2861 10.8929L17.7361 14.4429C17.7695 14.5262 17.7861 14.6055 17.7861 14.6809V14.9429C17.7861 15.4929 17.5905 15.9639 17.1991 16.3559C16.8078 16.7479 16.3368 16.9435 15.7861 16.9429C15.2355 16.9422 14.7648 16.7465 14.3741 16.3559C13.9835 15.9652 13.7875 15.4942 13.7861 14.9429V14.6809C13.7861 14.6055 13.8028 14.5262 13.8361 14.4429L11.2861 11.8929C11.2028 11.9262 11.1235 11.9429 11.0481 11.9429H10.7861C10.7528 11.9429 10.5861 11.9262 10.2861 11.8929L5.73613 16.4429C5.76947 16.5262 5.78613 16.6055 5.78613 16.6809V16.9429C5.78613 17.4929 5.59047 17.9639 5.19913 18.3559C4.8078 18.7479 4.3368 18.9435 3.78613 18.9429Z" fill="#5C5454"/>
</svg>
