<svg width="19" height="27" viewBox="0 0 19 27" fill="none" xmlns="http://www.w3.org/2000/svg">
<path id="Vector" d="M8.40435 6.09842H10.9758V3.52699H8.40435V6.09842ZM9.69006 13.8127C8.06149 13.8127 6.50792 13.475 5.02935 12.7996C3.55078 12.1241 2.10435 11.369 0.690063 10.5341V8.66985C0.690063 7.96271 0.942063 7.35757 1.44606 6.85442C1.95006 6.35128 2.55521 6.09928 3.26149 6.09842H5.83292V2.24128C5.83292 1.87699 5.95635 1.57185 6.20321 1.32585C6.45006 1.07985 6.75521 0.956424 7.11863 0.955566H12.2615C12.6258 0.955566 12.9313 1.079 13.1782 1.32585C13.4251 1.57271 13.5481 1.87785 13.5472 2.24128V6.09842H16.1186C16.8258 6.09842 17.4313 6.35042 17.9353 6.85442C18.4393 7.35842 18.6909 7.96357 18.6901 8.66985V10.5341C17.2758 11.3699 15.8293 12.1254 14.3508 12.8009C12.8722 13.4763 11.3186 13.8136 9.69006 13.8127ZM3.26149 26.6698V25.3841C2.55435 25.3841 1.94921 25.1326 1.44606 24.6294C0.94292 24.1263 0.690921 23.5207 0.690063 22.8127V13.427C1.89006 14.1556 3.12778 14.777 4.40321 15.2913C5.67863 15.8056 7.01235 16.1484 8.40435 16.3198V17.6698H10.9758V16.3198C12.3686 16.1484 13.7028 15.8056 14.9782 15.2913C16.2536 14.777 17.4909 14.1556 18.6901 13.427V22.8127C18.6901 23.5198 18.4385 24.1254 17.9353 24.6294C17.4322 25.1334 16.8266 25.385 16.1186 25.3841V26.6698H13.5472V25.3841H5.83292V26.6698H3.26149Z" fill="#FAB31B"/>
</svg>
