<svg width="49" height="49" viewBox="0 0 49 49" fill="none" xmlns="http://www.w3.org/2000/svg">
<g id="Group 68">
<g id="Group 65">
<circle id="Ellipse 24" cx="24.1904" cy="24.4421" r="24.1208" fill="#FAB31B"/>
</g>
<path id="Vector" d="M18.1904 26.4421H21.2654L26.2404 21.4421C26.3904 21.2921 26.5031 21.1211 26.5784 20.9291C26.6538 20.7371 26.6911 20.5498 26.6904 20.3671C26.6898 20.1845 26.6524 20.0055 26.5784 19.8301C26.5044 19.6548 26.4001 19.4921 26.2654 19.3421L25.3404 18.3921C25.1904 18.2421 25.0238 18.1298 24.8404 18.0551C24.6571 17.9805 24.4654 17.9428 24.2654 17.9421C24.0821 17.9421 23.8988 17.9798 23.7154 18.0551C23.5321 18.1305 23.3654 18.2428 23.2154 18.3921L18.1904 23.3671V26.4421ZM24.2404 21.3421L23.2904 20.4171L24.2654 19.4421L25.1904 20.3921L24.2404 21.3421ZM23.3904 26.4421H30.1904V24.4421H25.3904L23.3904 26.4421ZM14.1904 34.4421V16.4421C14.1904 15.8921 14.3864 15.4215 14.7784 15.0301C15.1704 14.6388 15.6411 14.4428 16.1904 14.4421H32.1904C32.7404 14.4421 33.2114 14.6381 33.6034 15.0301C33.9954 15.4221 34.1911 15.8928 34.1904 16.4421V28.4421C34.1904 28.9921 33.9948 29.4631 33.6034 29.8551C33.2121 30.2471 32.7411 30.4428 32.1904 30.4421H18.1904L14.1904 34.4421Z" fill="#173956"/>
</g>
</svg>
