<svg width="49" height="49" viewBox="0 0 49 49" fill="none" xmlns="http://www.w3.org/2000/svg">
<g id="Group 66">
<g id="Group 65">
<circle id="Ellipse 24" cx="24.4835" cy="24.4421" r="24.1208" fill="#FAB31B"/>
</g>
<path id="Vector" d="M20.9835 25.9424H22.4335L26.3335 22.0174L24.9085 20.5924L20.9835 24.4924V25.9424ZM27.0585 21.2924L28.0335 20.3174L26.6085 18.8924L25.6335 19.8674L27.0585 21.2924ZM24.4835 34.4424C21.8002 32.159 19.7962 30.0384 18.4715 28.0804C17.1469 26.1224 16.4842 24.3097 16.4835 22.6424C16.4835 20.1424 17.2879 18.1507 18.8965 16.6674C20.5052 15.184 22.3675 14.4424 24.4835 14.4424C26.5995 14.4424 28.4622 15.184 30.0715 16.6674C31.6809 18.1507 32.4849 20.1424 32.4835 22.6424C32.4835 24.309 31.8212 26.1217 30.4965 28.0804C29.1719 30.039 27.1675 32.1597 24.4835 34.4424Z" fill="#173956"/>
</g>
</svg>
