<svg width="17" height="23" viewBox="0 0 17 23" fill="none" xmlns="http://www.w3.org/2000/svg">
<rect width="17" height="23" fill="#454242"/>
<g id="iPhone 14 &#38; 15 Pro Max - 1">
<g clip-path="url(#clip0_0_1)">
<rect x="-310" y="-81" width="430" height="932" rx="30" fill="white"/>
<g id="Frame 49">
<rect id="Rectangle 122" x="-291.982" y="-17.8506" width="325.172" height="56" rx="16" fill="#E2EBF2"/>
<g id="Frame 10">
<g id="Group">
<path id="Vector" d="M12 5.23926C12 3.30626 10.433 1.73926 8.5 1.73926C6.567 1.73926 5 3.30626 5 5.23926V11.7393C5 13.6723 6.567 15.2393 8.5 15.2393C10.433 15.2393 12 13.6723 12 11.7393V5.23926Z" fill="#173956" stroke="#173956" stroke-width="2" stroke-linejoin="round"/>
<g id="Vector_2">
<path d="M1 11.2393C1 15.3813 4.358 18.7393 8.5 18.7393C12.642 18.7393 16 15.3813 16 11.2393M8.5 18.7393V21.7393V18.7393Z" fill="#173956"/>
<path d="M1 11.2393C1 15.3813 4.358 18.7393 8.5 18.7393M8.5 18.7393C12.642 18.7393 16 15.3813 16 11.2393M8.5 18.7393V21.7393" stroke="#173956" stroke-width="2" stroke-linecap="round" stroke-linejoin="round"/>
</g>
</g>
</g>
</g>
</g>
</g>
<defs>
<clipPath id="clip0_0_1">
<rect x="-310" y="-81" width="430" height="932" rx="30" fill="white"/>
</clipPath>
</defs>
</svg>
