<svg width="18" height="23" viewBox="0 0 18 23" fill="none" xmlns="http://www.w3.org/2000/svg">
<path d="M12.0518 5.1543C12.0518 3.2213 10.4848 1.6543 8.55176 1.6543C6.61876 1.6543 5.05176 3.2213 5.05176 5.1543V11.6543C5.05176 13.5873 6.61876 15.1543 8.55176 15.1543C10.4848 15.1543 12.0518 13.5873 12.0518 11.6543V5.1543Z" fill="#5C5454" stroke="#5C5454" stroke-width="2" stroke-linejoin="round"/>
<path d="M1.05176 11.1543C1.05176 15.2963 4.40976 18.6543 8.55176 18.6543C12.6938 18.6543 16.0518 15.2963 16.0518 11.1543M8.55176 18.6543V21.6543V18.6543Z" fill="#5C5454"/>
<path d="M1.05176 11.1543C1.05176 15.2963 4.40976 18.6543 8.55176 18.6543M8.55176 18.6543C12.6938 18.6543 16.0518 15.2963 16.0518 11.1543M8.55176 18.6543V21.6543" stroke="#5C5454" stroke-width="2" stroke-linecap="round" stroke-linejoin="round"/>
</svg>
