<svg width="16" height="17" viewBox="0 0 16 17" fill="none" xmlns="http://www.w3.org/2000/svg">
<path d="M1.19995 14.5913L7.99995 2.8125L14.8012 14.5913H1.19995Z" fill="#FCC21B"/>
<path d="M7.39004 10.7102H8.61004C8.65504 10.7102 8.69129 10.6814 8.69379 10.6439L9.02629 5.86016C9.02754 5.84016 9.02004 5.82266 9.00379 5.80766C8.98678 5.79297 8.96501 5.78497 8.94254 5.78516H7.05754C7.03379 5.78516 7.01129 5.79391 6.99629 5.80766C6.98893 5.81423 6.9831 5.82234 6.97921 5.83141C6.97532 5.84048 6.97347 5.8503 6.97379 5.86016L7.30754 10.6439C7.30879 10.6802 7.34504 10.7102 7.39004 10.7102ZM7.01379 13.2239C7.01379 13.0477 7.03879 12.8989 7.09004 12.7777C7.14004 12.6552 7.21004 12.5564 7.30004 12.4814C7.39004 12.4064 7.49504 12.3514 7.61754 12.3177C7.73879 12.2839 7.86879 12.2664 8.00879 12.2664C8.14004 12.2664 8.26504 12.2839 8.38379 12.3177C8.50254 12.3514 8.60629 12.4064 8.69504 12.4814C8.78504 12.5564 8.85629 12.6539 8.90879 12.7777C8.96129 12.8989 8.98754 13.0477 8.98754 13.2239C8.98754 13.3927 8.96129 13.5377 8.90879 13.6564C8.85629 13.7764 8.78504 13.8764 8.69504 13.9552C8.60629 14.0339 8.50254 14.0914 8.38379 14.1264C8.26504 14.1614 8.14004 14.1802 8.00879 14.1802C7.87004 14.1802 7.74004 14.1627 7.61754 14.1264C7.49504 14.0902 7.39004 14.0339 7.30004 13.9552C7.20724 13.8737 7.13524 13.7713 7.09004 13.6564C7.03879 13.5364 7.01379 13.3927 7.01379 13.2239Z" fill="#2F2F2F"/>
</svg>
